<svg width="737" height="600" xmlns="http://www.w3.org/2000/svg">
 <!-- Created with Method Draw - http://github.com/duopixel/Method-Draw/ -->

 <g>
  <title>background</title>
  <rect fill="none" id="canvas_background" height="602" width="739" y="-1" x="-1"/>
  <g display="none" overflow="visible" y="0" x="0" height="100%" width="100%" id="canvasGrid">
   <rect fill="url(#gridpattern)" stroke-width="0" y="0" x="0" height="100%" width="100%"/>
  </g>
 </g>
 <g>
  <title>Layer 1</title>
  <desc transform="matrix(0.5289256513611348,0,0,0.5289256513611348,0,0) ">Created with Sketch.</desc>
  <defs>
   <linearGradient y2="65.736%" y1="10.016%" x2="-14.855%" x1="87.595%" id="svg_108">
    <stop offset="0" stop-color="#86E0FA"/>
    <stop offset="1" stop-color="#7AB9E7"/>
   </linearGradient>
   <linearGradient y2="49.983%" y1="49.983%" x1="-2.4975e-14%" id="svg_107">
    <stop offset="0" stop-color="#86E0FA"/>
    <stop offset="1" stop-color="#7AB9E7"/>
   </linearGradient>
   <linearGradient y2="49.999%" y1="49.999%" x1=".0137%" id="svg_106">
    <stop offset="0" stop-color="#86E0FA"/>
    <stop offset="1" stop-color="#7AB9E7"/>
   </linearGradient>
   <linearGradient y2="37.205%" y1="60.682%" x2="9.5035%" x1="90.496%" id="svg_105">
    <stop offset="0" stop-color="#86E0FA"/>
    <stop offset="1" stop-color="#7AB9E7"/>
   </linearGradient>
   <linearGradient y2="7.3627%" y1="78.936%" x2="57.443%" x1="19.511%" id="svg_104">
    <stop offset="0" stop-color="#86E0FA"/>
    <stop offset="1" stop-color="#7AB9E7"/>
   </linearGradient>
   <linearGradient y2="7.4253%" y1="78.945%" x2="57.438%" x1="19.506%" id="svg_103">
    <stop offset="0" stop-color="#86E0FA"/>
    <stop offset="1" stop-color="#7AB9E7"/>
   </linearGradient>
   <linearGradient y2="51.231%" y1="34.146%" x2="45.683%" x1="142.6%" id="svg_102">
    <stop offset="0" stop-color="#1E3863"/>
    <stop offset="1" stop-color="#387FBD"/>
   </linearGradient>
   <linearGradient y2="20.698%" y1="79.38%" x2="28.684%" x1="71.316%" id="svg_101">
    <stop offset="0" stop-color="#1E3863"/>
    <stop offset="1" stop-color="#387FBD"/>
   </linearGradient>
   <linearGradient y2="20.798%" y1="79.37%" x2="28.708%" x1="71.292%" id="svg_100">
    <stop offset="0" stop-color="#86E0FA"/>
    <stop offset="1" stop-color="#7AB9E7"/>
   </linearGradient>
   <linearGradient y2="49.989%" y1="49.989%" x1="-1.9677e-14%" id="svg_99">
    <stop offset="0" stop-color="#86E0FA"/>
    <stop offset="1" stop-color="#7AB9E7"/>
   </linearGradient>
   <linearGradient y2="10.897%" y1="67.973%" x2="24.365%" x1="23.53%" id="svg_98">
    <stop offset="0" stop-color="#E7C7D7"/>
    <stop offset="0.42" stop-color="#ECD6D3"/>
    <stop offset="1" stop-color="#F2EBCD"/>
   </linearGradient>
   <linearGradient y2="28.855%" y1="72.799%" x2="23.178%" x1="81.193%" id="svg_97">
    <stop offset="0" stop-color="#1E3863"/>
    <stop offset="1" stop-color="#387FBD"/>
   </linearGradient>
   <linearGradient y2="12.93%" y1="70.861%" x2="31.805%" x1="64.492%" id="svg_96">
    <stop offset="0" stop-color="#1E3863"/>
    <stop offset="1" stop-color="#387FBD"/>
   </linearGradient>
   <linearGradient y2="67.092%" y1="56.436%" x2="54.555%" x1="43.923%" id="svg_95">
    <stop offset="0" stop-color="#E7C7D7"/>
    <stop offset="0.42" stop-color="#ECD6D3"/>
    <stop offset="1" stop-color="#F2EBCD"/>
   </linearGradient>
   <linearGradient y2="54.307%" y1="-15.463%" x2="-31.395%" x1="99.449%" id="svg_94">
    <stop offset="0" stop-color="#E7C7D7"/>
    <stop offset="0.42" stop-color="#ECD6D3"/>
    <stop offset="1" stop-color="#F2EBCD"/>
   </linearGradient>
   <linearGradient y2="377.6%" y1="36.403%" x2="361.53%" x1="41.214%" id="svg_93">
    <stop offset="0" stop-color="#E7C7D7"/>
    <stop offset="0.42" stop-color="#ECD6D3"/>
    <stop offset="1" stop-color="#F2EBCD"/>
   </linearGradient>
   <linearGradient y2="53.365%" y1="37.112%" x2="62.226%" x1="-5.4154%" id="svg_92">
    <stop offset="0" stop-color="#E7C7D7"/>
    <stop offset="0.42" stop-color="#ECD6D3"/>
    <stop offset="1" stop-color="#F2EBCD"/>
   </linearGradient>
   <linearGradient y2="74045%" y1="74309%" x2="2280.3%" x1="2167%" id="svg_91">
    <stop offset="0" stop-color="#E7C7D7"/>
    <stop offset="0.42" stop-color="#ECD6D3"/>
    <stop offset="1" stop-color="#F2EBCD"/>
   </linearGradient>
   <linearGradient y2="71.105%" y1="32.477%" x2="-46.294%" x1="55.573%" id="svg_89">
    <stop offset="0" stop-color="#1E3863"/>
    <stop offset="1" stop-color="#387FBD"/>
   </linearGradient>
   <linearGradient y2="82.547%" y1="28.253%" x2="-45.087%" x1="43.489%" id="svg_88">
    <stop offset="0" stop-color="#1E3863"/>
    <stop offset="1" stop-color="#387FBD"/>
   </linearGradient>
   <linearGradient y2="68.137%" y1="34.535%" x2="27.883%" x1="60.841%" id="svg_87">
    <stop offset="0" stop-color="#1E3863"/>
    <stop offset="1" stop-color="#387FBD"/>
   </linearGradient>
   <linearGradient y2="73.702%" y1="40.205%" x2="2.7839%" x1="36.556%" id="svg_86">
    <stop offset="0" stop-color="#1E3863"/>
    <stop offset="1" stop-color="#387FBD"/>
   </linearGradient>
   <linearGradient y2="64.54%" y1="34.985%" x2="-9.8991%" x1="92.574%" id="svg_85">
    <stop offset="0" stop-color="#1E3863"/>
    <stop offset="1" stop-color="#387FBD"/>
   </linearGradient>
   <linearGradient y2="77.326%" y1="45.465%" x2="-11.244%" x1="19.093%" id="svg_84">
    <stop offset="0" stop-color="#1E3863"/>
    <stop offset="1" stop-color="#387FBD"/>
   </linearGradient>
   <linearGradient y2="78.36%" y1="46.616%" x2="-14.013%" x1="16.342%" id="svg_83">
    <stop offset="0" stop-color="#1E3863"/>
    <stop offset="1" stop-color="#387FBD"/>
   </linearGradient>
   <linearGradient y2="16.898%" y1="101.33%" x2="-30.902%" x1="191.5%" id="svg_82">
    <stop offset="0" stop-color="#1E3863"/>
    <stop offset="1" stop-color="#387FBD"/>
   </linearGradient>
   <linearGradient y2="37.196%" y1="58.141%" x2="41.056%" x1="65.392%" id="svg_81">
    <stop offset="0" stop-color="#1E3863"/>
    <stop offset="1" stop-color="#387FBD"/>
   </linearGradient>
   <linearGradient y2="63.922%" y1="32.437%" x2="65.418%" x1="35.632%" id="svg_80">
    <stop offset="0" stop-color="#86E0FA"/>
    <stop offset="1" stop-color="#7AB9E7"/>
   </linearGradient>
   <linearGradient y2="39.856%" y1="12.652%" x2="54.405%" x1="37.176%" id="svg_79">
    <stop offset="0" stop-color="#86E0FA"/>
    <stop offset="1" stop-color="#7AB9E7"/>
   </linearGradient>
   <linearGradient y2="92.735%" y1="21.523%" x2="67.625%" x1="44.028%" id="svg_78">
    <stop offset="0" stop-color="#86E0FA"/>
    <stop offset="1" stop-color="#7AB9E7"/>
   </linearGradient>
   <linearGradient y2="170.12%" y1="6.9133%" x2="134.94%" x1="31.089%" id="svg_77">
    <stop offset="0" stop-color="#86E0FA"/>
    <stop offset="1" stop-color="#7AB9E7"/>
   </linearGradient>
   <linearGradient y2="41.281%" y1="12.179%" x2="64.846%" x1="39.398%" id="svg_76">
    <stop offset="0" stop-color="#86E0FA"/>
    <stop offset="1" stop-color="#7AB9E7"/>
   </linearGradient>
   <linearGradient y2="64.646%" y1="30.54%" x2="5.8346%" x1="92.612%" id="svg_75">
    <stop offset="0" stop-color="#86E0FA"/>
    <stop offset="1" stop-color="#7AB9E7"/>
   </linearGradient>
   <linearGradient y2="20.714%" y1="79.286%" x2="28.708%" x1="71.292%" id="svg_74">
    <stop offset="0" stop-color="#1E3863"/>
    <stop offset="1" stop-color="#387FBD"/>
   </linearGradient>
   <linearGradient y2="72.413%" y1="47.955%" x2="-31.97%" x1="59.672%" id="svg_73">
    <stop offset="0" stop-color="#1E3863"/>
    <stop offset="1" stop-color="#387FBD"/>
   </linearGradient>
   <linearGradient y2="56.764%" y1="33.581%" x2="43.327%" x1="66.58%" id="svg_72">
    <stop offset="0" stop-color="#1E3863"/>
    <stop offset="1" stop-color="#387FBD"/>
   </linearGradient>
   <linearGradient y2="30.451%" y1="70.395%" x2="74.486%" x1="27.943%" id="svg_71">
    <stop offset="0" stop-color="#86E0FA"/>
    <stop offset="1" stop-color="#7AB9E7"/>
   </linearGradient>
   <linearGradient y2="35.56%" y1="73.166%" x2="71.37%" x1="30.547%" id="svg_70">
    <stop offset="0" stop-color="#86E0FA"/>
    <stop offset="1" stop-color="#7AB9E7"/>
   </linearGradient>
   <linearGradient y2="37.088%" y1="63.425%" x2="60.623%" x1="40.957%" id="svg_69">
    <stop offset="0" stop-color="#86E0FA"/>
    <stop offset="1" stop-color="#7AB9E7"/>
   </linearGradient>
   <linearGradient y2="27.219%" y1="64.798%" x2="71.069%" x1="30.286%" id="svg_68">
    <stop offset="0" stop-color="#86E0FA"/>
    <stop offset="1" stop-color="#7AB9E7"/>
   </linearGradient>
   <linearGradient y2="25.245%" y1="79.902%" x2="114.53%" x1="9.691%" id="svg_67">
    <stop offset="0" stop-color="#86E0FA"/>
    <stop offset="1" stop-color="#7AB9E7"/>
   </linearGradient>
   <linearGradient y2="24.427%" y1="78.084%" x2="108.99%" x1="5.9725%" id="svg_66">
    <stop offset="0" stop-color="#86E0FA"/>
    <stop offset="1" stop-color="#7AB9E7"/>
   </linearGradient>
   <linearGradient y2="24.39%" y1="77.716%" x2="107.11%" x1="4.6402%" id="svg_65">
    <stop offset="0" stop-color="#86E0FA"/>
    <stop offset="1" stop-color="#7AB9E7"/>
   </linearGradient>
   <linearGradient y2="24.177%" y1="77.36%" x2="106.08%" x1="3.9191%" id="svg_64">
    <stop offset="0" stop-color="#86E0FA"/>
    <stop offset="1" stop-color="#7AB9E7"/>
   </linearGradient>
   <linearGradient y2="24.108%" y1="77.144%" x2="105.67%" x1="3.6645%" id="svg_63">
    <stop offset="0" stop-color="#86E0FA"/>
    <stop offset="1" stop-color="#7AB9E7"/>
   </linearGradient>
   <linearGradient y2="24.175%" y1="76.837%" x2="105.52%" x1="3.5134%" id="svg_62">
    <stop offset="0" stop-color="#86E0FA"/>
    <stop offset="1" stop-color="#7AB9E7"/>
   </linearGradient>
   <linearGradient y2="23.957%" y1="76.942%" x2="105.29%" x1="3.4514%" id="svg_61">
    <stop offset="0" stop-color="#86E0FA"/>
    <stop offset="1" stop-color="#7AB9E7"/>
   </linearGradient>
   <linearGradient y2="23.418%" y1="77.592%" x2="105.43%" x1="3.4546%" id="svg_60">
    <stop offset="0" stop-color="#86E0FA"/>
    <stop offset="1" stop-color="#7AB9E7"/>
   </linearGradient>
   <linearGradient y2="23.959%" y1="77.011%" x2="105.66%" x1="3.675%" id="svg_59">
    <stop offset="0" stop-color="#86E0FA"/>
    <stop offset="1" stop-color="#7AB9E7"/>
   </linearGradient>
   <linearGradient y2="23.958%" y1="76.756%" x2="106.35%" x1="4.057%" id="svg_58">
    <stop offset="0" stop-color="#86E0FA"/>
    <stop offset="1" stop-color="#7AB9E7"/>
   </linearGradient>
   <linearGradient y2="23.725%" y1="77.149%" x2="107.35%" x1="4.77%" id="svg_57">
    <stop offset="0" stop-color="#86E0FA"/>
    <stop offset="1" stop-color="#7AB9E7"/>
   </linearGradient>
   <linearGradient y2="23.657%" y1="77.32%" x2="109.32%" x1="6.205%" id="svg_56">
    <stop offset="0" stop-color="#86E0FA"/>
    <stop offset="1" stop-color="#7AB9E7"/>
   </linearGradient>
  </defs>
  <g stroke="null" id="svg_195">
   <g stroke="null" transform="matrix(2.631871410107998,0,0,2.631871410107998,-375.7285612776143,-2187.5810955203724) " id="svg_110" fill-rule="evenodd" fill="none">
    <g stroke="null" id="svg_111">
     <g stroke="null" id="svg_112">
      <path stroke="null" id="svg_113" opacity="0.36" fill-rule="nonzero" fill="url(#svg_108)" d="m272.961093,897.330629l0,1.62c0,4.194 -2.5523,9.081 -5.6977,10.89l-53.526,30.96c-3.1454,1.8 -5.6887,-0.117 -5.6887,-4.311l0,-40.5c0,-4.203 2.5433,-9.081 5.6887,-10.899l8.0882,-4.68l0,38.889c0,4.194 2.5433,6.12 5.6887,4.311l45.447,-26.28l-0.0002,0z"/>
      <path stroke="null" id="svg_114" opacity="0.22" fill-rule="nonzero" fill="url(#svg_107)" d="m274.561093,856.894629l0,38.889l-45.447,26.316c-3.1454,1.8 -5.6887,-0.117 -5.6887,-4.32l0,-38.934l45.438,-26.262c3.1454,-1.827 5.6977,0.117 5.6977,4.311z"/>
      <path stroke="null" id="svg_115" opacity="0.39" fill-rule="nonzero" fill="url(#svg_106)" d="m419.621093,923.440629c0,21.286 -11.45,40.921 -29.962,51.381l-129.86,73.404l-15.826,8.505c-5.5318,3.0021 -12.446,0.95469 -15.458,-4.5773c-3.0122,-5.532 -0.98581,-12.462 4.5302,-15.493l53.292,-29.7c11.962,-9.126 0,-22.824 -12.752,-17.334l-53.922,29.79c-5.9947,2.8935 -13.203,0.65777 -16.515,-5.1224s-1.6032,-13.141 3.9158,-16.865l4.9248,-3.78l0.97958,-0.756c2.2426,-1.3373 3.6167,-3.7581 3.6167,-6.372s-1.3741,-5.0347 -3.6167,-6.372l-1.7974,-1.062c-5.9077,-3.5287 -13.23,-3.6995 -19.295,-0.45l-33.072,17.64c-3.2011,1.6228 -7.0373,1.3315 -9.9575,-0.756c-2.5271,-1.8906 -3.924,-4.9359 -3.7097,-8.0876c0.21429,-3.1517 2.0105,-5.9793 4.7702,-7.5094l63.556,-35.469l13.256,-7.371l110.13,-62.1c36.999,-20.862 82.743,5.922 82.743,48.438l0.03595,0.018l-0.00693,0.0007z"/>
      <path stroke="url(#svg_105)" id="svg_116" stroke-width="0.972" stroke-linecap="round" d="m338.701093,941.579629c28.65,9.747 47.837,27.567 47.837,47.934c0,30.834 -43.973,55.8 -98.209,55.8c-54.236,0 -98.2,-25.002 -98.2,-55.8c0,-16.848 13.13,-31.95 33.881,-42.192"/>
      <path stroke="null" id="svg_117" opacity="0.22" fill-rule="nonzero" fill="url(#svg_104)" d="m260.361093,953.909629l-11.009,-14.238c-0.43309,-0.56616 -0.58354,-1.2997 -0.40834,-1.991c0.1752,-0.69128 0.65676,-1.2642 1.307,-1.555l14.217,-6.588c0.86895,-0.40576 1.8977,-0.23406 2.5882,0.432l10.667,10.287c0.49037,0.47236 0.74981,1.1359 0.71006,1.8162c-0.03975,0.68022 -0.37472,1.309 -0.91676,1.7208l-13.867,10.548c-0.49158,0.3843 -1.1166,0.55498 -1.7349,0.47377s-1.1783,-0.40752 -1.5543,-0.90577l0.00104,0z"/>
      <path stroke="null" id="svg_118" opacity="0.22" fill-rule="nonzero" fill="url(#svg_103)" d="m257.621093,953.889629l-11.018,-14.238c-0.43309,-0.56616 -0.58354,-1.2997 -0.40834,-1.991c0.1752,-0.69128 0.65676,-1.2642 1.307,-1.555l14.208,-6.588c0.87206,-0.40465 1.9026,-0.23324 2.5972,0.432l10.667,10.287c0.49037,0.47236 0.74981,1.1359 0.71006,1.8162c-0.03975,0.68022 -0.37472,1.309 -0.91676,1.7208l-13.903,10.548c-1.0157,0.77536 -2.4662,0.58222 -3.2443,-0.432l0.00114,0z"/>
      <path stroke="null" id="svg_119" fill-rule="nonzero" fill="#3D4D56" d="m269.321093,937.689629c0.1924,-0.08921 0.36388,-0.21801 0.50327,-0.378c0.35049,-0.45 0.1348,-1.107 -0.09886,-1.629c-0.29283,-0.74161 -0.67297,-1.4456 -1.1324,-2.097c-0.47816,-0.64827 -1.1738,-1.102 -1.9592,-1.278c-0.91601,-0.06829 -1.8304,0.15199 -2.6152,0.63c-1.1139,0.52493 -2.1316,1.2338 -3.0106,2.097c-1.1683,1.206 -3.0196,5.211 -0.8268,6.354c1.3211,0.693 3.1544,-0.612 4.3047,-1.17c1.6356,-0.792 3.2533,-1.638 4.835,-2.529l0.00009,0z"/>
      <path stroke="null" id="svg_120" fill-rule="nonzero" fill="#418D96" d="m264.891093,937.719629c0.7589,-0.55363 1.6871,-0.82423 2.6242,-0.765c0.35049,0.063 0.74592,0.306 0.70098,0.666c-0.02657,0.13132 -0.08875,0.25276 -0.17974,0.351c-0.78186,0.9 -2.1479,1.026 -3.2353,1.548c-0.59314,0.279 -1.1054,0.693 -1.6806,1.008c-0.57516,0.315 -1.3301,0.423 -0.89869,-0.378c0.66628,-1.0264 1.5856,-1.8633 2.6691,-2.43l0.00005,0z"/>
      <path stroke="null" id="svg_121" fill-rule="nonzero" fill="url(#svg_102)" d="m314.521093,877.999629c0.93663,-0.27074 1.9353,-0.23288 2.8489,0.108c-1.2849,-1.2329 -3.0474,-1.8355 -4.817,-1.647c-3.3072,0.099 1.9681,1.539 1.9681,1.539z"/>
      <ellipse stroke="null" id="svg_122" fill-rule="nonzero" fill="url(#svg_101)" ry="3.6488" rx="4.5808" cy="952.027628" cx="454.351087" transform="rotate(-80.26000213623047 299.70101928710926,892.9636230468749) translate(-154.64999389648438,-59.06399917602539) "/>
      <ellipse stroke="null" id="svg_123" fill-rule="nonzero" fill="url(#svg_100)" ry="3.3792" rx="4.2478" cy="953.02163" cx="457.671091" transform="rotate(-80.26000213623047 301.3610534667968,893.4606323242188) translate(-156.30999755859375,-59.56100082397461) "/>
      <path stroke="null" id="svg_124" opacity="0.45" fill-rule="nonzero" fill="url(#svg_99)" d="m288.331093,839.713629l0,40.5c0,4.194 -2.5433,9.081 -5.6887,10.89l-8.0882,4.671l-45.438,26.325c-3.1454,1.8 -5.6887,-0.117 -5.6887,-4.32l0,-40.5c0,-4.212 2.5433,-9.081 5.6887,-10.899l53.526,-30.978c3.1454,-1.818 5.6887,0.117 5.6887,4.311l0.0002,0z"/>
      <path stroke="null" id="svg_125" fill-rule="nonzero" fill="#161F4E" d="m252.741093,1003.659629l-2.2827,5.742l-2.9118,-0.783l-0.6201,-1.863l-4.0531,0.333s-7.1895,-2.979 -8.6364,-5.112c-2.5972,-3.96 2.2467,-5.652 5.1675,-4.815c2.9208,0.837 3.6667,2.367 4.9877,2.421c1.1213,-0.03025 2.2348,-0.19646 3.3162,-0.495l5.0327,4.572z"/>
      <path stroke="null" id="svg_126" fill-rule="nonzero" fill="#161F4E" d="m308.001093,948.299629l-2.6152,0.963l-5.2574,1.998c-9.3913,3.6 -24.921,9.9 -33.71,15.156c-4.4395,2.646 -19.52,29.889 -19.52,29.889c-0.00899,0.52082 0.02407,1.0415 0.09886,1.557c0.32353,2.259 1.6087,6.147 6.6503,5.958l14.056,-20.277c2.1212,-3.5405 5.8992,-5.7529 10.02,-5.868l10.721,-2.475l20.67,-10.557l5.7157,-2.925l2.0041,-7.092l-8.8342,-6.327l0.00084,0z"/>
      <path stroke="null" id="svg_127" fill-rule="nonzero" fill="#212C6E" d="m321.741093,952.519629l-10.011,-0.189c-0.56837,2.7373 -2.2924,5.094 -4.7271,6.462l-0.0719,0c-1.5476,0.74702 -3.0143,1.6518 -4.3766,2.7c-2.9028,2.538 -4.3856,7.002 -5.67079,8.361c-1.2851,1.359 -19.232,8.676 -21.65001,13.446c-2.2108,4.338 -8.4028,33.993 -8.4028,33.993s0.45833,1.35 1.1413,3.015c0.42239,1.026 0.89869,2.169 1.4469,3.186c1.366,2.7 6.7761,-1.008 6.7761,-1.008s6.5335,-30.006 9.52611,-31.374s10.19999,-2.763 16.797,-5.652s17.40799,-12.276 17.40799,-12.276c3.63911,-4.3228 5.5589,-9.8375 5.3922,-15.489c-0.08088,-2.835 -0.17075,-5.274 -0.22467,-5.4c-0.11682,-0.279 -3.3521,0.225 -3.3521,0.225l-0.00063,0z"/>
      <path stroke="null" id="svg_128" fill-rule="nonzero" fill="#161F4E" d="m274.001093,1021.339629s0.22467,2.637 -0.55719,4.041c-0.77105,1.569 -1.4551,3.1795 -2.049,4.824c0,0 -0.53023,0.63 -1.7974,0.243l-1.1413,-0.495c-0.68974,0.66006 -1.5236,1.15 -2.4355,1.431c-1.402,0.378 -12.725,2.88 -12.06,-3.114c0.66503,-5.994 7.576,-4.95 9.3105,-5.4s5.0956,-3.744 5.0956,-3.744l5.6348,2.214l-0.00051,0z"/>
      <path stroke="null" id="svg_129" fill-rule="nonzero" fill="url(#svg_98)" d="m270.161093,935.069629c-0.27539,0.9069 -0.69409,1.7638 -1.2402,2.538c-0.89869,1.188 -3.5948,3.168 -4.4126,2.889c-0.81781,-0.279 1.5727,-2.385 1.1503,-2.844c-0.42238,-0.459 -3.7925,0.504 -4.4485,0.774s-1.1773,1.881 -1.9232,1.737s-1.0425,-1.242 0.21569,-3.744s2.1209,-3.717 3.4779,-4.581c1.357,-0.864 6.4616,-1.512 6.4616,-1.512s7.4861,-4.806 11.683,-7.668l11.566,-7.758l-2.9477,10.8l-19.583,9.369l0.00071,0z"/>
      <path stroke="null" id="svg_130" fill-rule="nonzero" fill="url(#svg_97)" d="m298.901093,903.487629l-11.297,13.5l-5.2214,3.213l4.4935,7.299l10.982,-3.69s1.1863,22.23 -2.4984,27.144c-3.6846,4.914 1.5188,16.038 13.966,15.039c12.447,-0.999 16.042,-4.167 16.042,-4.167s0.42239,-38.601 2.777,-46.152c-3.5335,-4.2 -8.2557,-7.2283 -13.543,-8.685c-8.4657,-2.151 -13.75,-5.454 -15.7,-3.501l-0.0007,0z"/>
      <path stroke="null" id="svg_131" fill-rule="nonzero" fill="#fff" d="m304.661093,904.243629s-3.0016,7.641 -4.8709,26.379s-5.1315,23.553 -5.1315,23.553s-1.0964,8.298 7.9804,11.052c0,0 4.3766,1.8 6.6953,0.756c0,0 0.98856,-36 1.9951,-42.3s1.6356,-15.165 1.6356,-15.165s-9.7958,4.329 -8.3039,-4.275l-0.0001,0z"/>
      <path stroke="null" id="svg_132" fill-rule="nonzero" fill="#416693" d="m297.411093,956.299629c0.31798,0.25341 0.48163,0.65409 0.43213,1.058s-0.30504,0.75309 -0.67477,0.92198l-23.429,10.071l-20.283,-15.804l25.163,-10.8l18.792,14.553l-0.00036,0.00002z"/>
      <path stroke="null" id="svg_133" fill-rule="nonzero" fill="#557eb5" d="m296.201095,955.399634c1.1863,0.9 0.23366,1.62 -1.1773,2.187l-21.766,8.712l-19.214,-13.401l25.163,-10.8l16.994,13.302l0.0003,0z"/>
      <polygon stroke="null" id="svg_134" fill-rule="nonzero" fill="#94b0dd" points="280.80106353759766,947.2896715402603 287.1310806274414,952.7996813058853 281.06107330322266,955.7196642160416 275.3510513305664,950.1096178293228 "/>
      <polygon stroke="null" id="svg_135" fill-rule="nonzero" fill="#94b0dd" points="270.7610855102539,947.0696398019791 271.56107330322266,947.7596422433853 284.6310806274414,960.1196886301041 273.1410903930664,964.3896471261978 261.8410415649414,950.8997179269791 "/>
      <path stroke="null" id="svg_136" fill-rule="nonzero" fill="#416693" d="m263.681093,958.869629l-24.66,-19.359c-0.37745,-0.288 -1.4649,-0.225 -1.6716,0.198c-0.18412,0.36867 -0.13857,0.81074 0.11683,1.134l14.532,19.296c0.60042,0.79272 1.4281,1.383 2.3725,1.692l19.412,6.525l-10.101,-9.486l-0.00073,0z"/>
      <path stroke="null" id="svg_137" fill-rule="nonzero" fill="#557eb5" d="m238.515093,939.689629c0.08101,-0.16709 0.27798,-0.24204 0.44935,-0.171l20.67,10.305l13.579,16.488l-17.704,-5.679c-1.0714,-0.40687 -2.0061,-1.1089 -2.6961,-2.025l-14.235,-18.567c-0.08703,-0.09495 -0.11153,-0.23167 -0.06291,-0.351l-0.00034,0z"/>
      <path stroke="null" id="svg_138" fill-rule="nonzero" fill="#94b0dd" d="m240.591093,940.749629c0.03735,-0.03964 0.08937,-0.0621 0.14379,-0.0621c0.05442,0 0.10644,0.02246 0.14379,0.0621l17.596,8.901l12.51,14.94l-15.467,-5.319c-0.66201,-0.24512 -1.2393,-0.67638 -1.6626,-1.242l-13.31,-17.028c-0.03104,-0.04534 -0.04279,-0.10117 -0.03268,-0.1552s0.04127,-0.1018 0.0866,-0.1328l-0.00899,0.036l0.00109,0z"/>
      <path stroke="null" id="svg_139" fill-rule="nonzero" fill="url(#svg_96)" d="m325.371093,961.819629c-7.1895,4.716 -12.42,4.149 -12.42,4.149c-0.50974,-0.2207 -0.95731,-0.56382 -1.3031,-0.999c-1.9681,-2.232 5.4371,-9.45 6.2908,-10.8c7.7467,-12.177 -1.4379,-13.68 0.60212,-23.076c0.6384,-2.5926 1.0147,-5.2429 1.1234,-7.911c0.02883,-1.5477 -0.13724,-3.0929 -0.49428,-4.599c-0.16953,-0.71936 -0.38874,-1.4261 -0.65605,-2.115c-2.75,-7.146 -10.074,-11.088 -18.091,-12.816c-0.36846,-0.072 -1.5098,-0.171 -1.5188,-0.171c-0.14379,-0.423 8.1691,-2.115 12.582,0.369c1.2222,0.576 2.5613,1.089 3.7835,1.656c0.51226,0.225 0.99755,0.441 1.4649,0.684c3.3254,1.9446 6.5115,4.1189 9.5351,6.507c0.22467,0.234 0.43137,0.477 0.6201,0.702c2.5523,3.204 2.04,6.867 0.44935,13.5c-2.049,8.703 -1.9681,34.92 -1.9681,34.92l0.00006,0z"/>
      <path stroke="null" id="svg_140" fill-rule="nonzero" fill="#3D4D56" d="m273.191093,933.979629l-2.1029,-4.68l-1.3031,0.495c0.40441,0.828 2.0221,4.707 2.0221,4.707l1.384,-0.522l-0.0001,0z"/>
      <path stroke="null" id="svg_141" fill-rule="nonzero" fill="#3D4D56" d="m270.641093,931.999629c0.55645,0.11323 1.1262,-0.12085 1.4428,-0.59285c0.31668,-0.472 0.3178,-1.0887 0.00283,-1.5618c-0.31497,-0.47315 -0.88383,-0.7093 -1.4407,-0.59809c-0.55686,0.11121 -0.99174,0.54782 -1.1014,1.1058c-0.13189,0.75596 0.36283,1.4791 1.1144,1.629l-0.01797,0.018l0.00004,-0.00006z"/>
      <path stroke="null" id="svg_142" fill-rule="nonzero" fill="#56666E" d="m270.511093,931.441629c0.60549,0.10918 1.1848,-0.29369 1.2941,-0.9c0.08217,-0.59045 -0.31356,-1.1413 -0.89869,-1.251l-0.14379,0c-0.56846,-0.06656 -1.0948,0.30896 -1.2178,0.86875c-0.12293,0.55979 0.19757,1.1218 0.74147,1.3002c0.06859,0.00927 0.13811,0.00927 0.2067,0l0.01797,-0.018l0.00004,0.00005z"/>
      <path stroke="null" id="svg_143" fill-rule="nonzero" fill="url(#svg_95)" d="m306.431093,943.309629s-16.302,2.502 -17.345,2.763c-1.3391,0.333 -2.076,2.142 -3.1993,2.862c-1.4639,0.89553 -3.1562,1.3458 -4.8709,1.296c-1.7623,-0.05989 -3.5129,-0.31034 -5.2214,-0.747c-0.63807,-0.135 -1.4199,-0.441 -1.4469,-1.098c0.02085,-0.29287 0.1306,-0.57236 0.31454,-0.801c1.8489,-2.6876 4.9103,-4.2796 8.1691,-4.248l-2.9297,-1.44c0.601,-0.52472 1.3896,-0.78147 2.1838,-0.711c0.78453,0.07968 1.5644,0.19984 2.3366,0.36c3.3521,0.504 6.6773,-0.9 9.7958,-1.926c3.3431,-1.122 6.6803,-2.268 10.011,-3.438c0.7549,-0.27 7.1356,-2.07 7.8905,-2.331l4.9788,7.119l-10.667,2.34l0.00006,0z"/>
      <path stroke="null" id="svg_144" fill-rule="nonzero" fill="url(#svg_94)" d="m315.171093,906.061629c-0.1361,0.33014 -0.32759,0.63452 -0.56618,0.9c-1.3031,1.593 -4.4935,3.753 -7.3783,2.979l-0.5482,-0.198c-3.7026,-1.512 -1.9142,-4.068 -1.5547,-7.605c0.1348,-1.35 0.25163,-2.106 2.4355,-2.574c2.5727,-0.50216 5.1885,-0.74936 7.8096,-0.738c-0.57516,1.386 0.05392,4.806 -0.08987,6.552c-0.00735,0.23161 -0.04358,0.46139 -0.10784,0.684l-0.00001,0z"/>
      <path stroke="null" id="svg_145" fill-rule="nonzero" fill="url(#svg_93)" d="m314.681093,899.671629s-4.143,7.443 -7.8276,8.1c-3.6846,0.657 -2.1928,-3.51 -2.1928,-3.51l10.02,-4.59l0.0004,0z"/>
      <path stroke="null" id="svg_146" fill-rule="nonzero" fill="url(#svg_92)" d="m310.711093,880.195629c1.1878,-0.26293 2.4216,-0.23204 3.5948,0.09c0.7549,0.324 1.0155,1.125 1.7165,1.431c0.89869,0.432 2.058,0.459 2.8219,1.179c0.53663,0.59712 0.91107,1.3223 1.0874,2.106c0.56462,1.7662 0.65757,3.6497 0.26961,5.463c-0.6201,2.43 -3.2083,6.543 -3.2083,6.543c-1.2757,1.5773 -2.641,3.0798 -4.0891,4.5c-1.1863,0.99 -4.0351,3.375 -8.2141,2.7c-4.1789,-0.675 -5.0596,-8.208 -4.8799,-9.72s0.65605,-2.115 0.70997,-2.853c-0.05388,-1.0313 -0.05388,-2.0647 0,-3.096c0.14684,-1.0172 0.51832,-1.9888 1.0874,-2.844c0.08212,-0.10081 0.15435,-0.20931 0.21569,-0.324c2.1703,-2.8257 5.3623,-4.6842 8.8881,-5.175l0.00003,0z"/>
      <path stroke="null" id="svg_147" fill-rule="nonzero" fill="#212C6E" d="m321.891093,887.962629c-0.11683,2.619 -1.4559,4.392 -3.1275,7.056c-0.89869,1.395 -2.2737,4.5 -3.3881,3.888c0,0 -0.4134,-3.6 1.0425,-3.753s2.1748,-4.887 0.56618,-4.194c-0.27818,0.11743 -0.52235,0.30315 -0.70997,0.54c-0.05992,0.04932 -0.10889,0.11063 -0.14379,0.18c-0.63905,0.93388 -1.0655,1.9969 -1.2492,3.114c-0.04493,0.279 -0.32353,0.585 -0.55719,0.441c-0.17974,-1.359 0.08987,-2.772 -0.22467,-4.104c-0.07498,-0.36423 -0.23859,-0.70429 -0.47631,-0.99c-0.24728,-0.22888 -0.53335,-0.41175 -0.84477,-0.54c-0.92628,-0.46872 -1.9266,-0.77322 -2.9567,-0.9c-0.87413,-0.01937 -1.7485,0.02877 -2.6152,0.144c-0.59653,0.07898 -1.2009,0.07898 -1.7974,0c-1.375,-0.234 -2.3815,-1.368 -3.6577,-1.647c-0.67402,-0.144 -0.79085,0.333 -1.0245,0.999c-0.16653,0.50338 -0.2633,1.0273 -0.28758,1.557c-0.00155,0.06026 0.02112,0.11862 0.06291,0.162c-1.3216,-0.69434 -1.9515,-2.2411 -1.4918,-3.663c0.15739,-0.31481 0.26646,-0.6516 0.32353,-0.999c-0.01249,-0.25455 -0.0609,-0.50604 -0.14379,-0.747c-0.34948,-1.008 -0.44819,-2.0862 -0.28758,-3.141c0.17316,-0.78425 0.50335,-1.5252 0.97059,-2.178c1.6102,-2.3585 4.1978,-3.8628 7.0414,-4.0934c2.8436,-0.23062 5.6392,0.83705 7.6073,2.9054c0.3509,0.48887 0.72894,0.95761 1.1324,1.404c0.42239,0.333 0.89869,0.252 1.4918,0.396c1.1467,0.28069 2.1602,0.95204 2.8668,1.899c1.0165,1.3687 1.6383,2.9907 1.7974,4.689c0.06613,0.52225 0.09317,1.0487 0.08088,1.575l0.00006,0z"/>
      <path stroke="null" id="svg_148" fill-rule="nonzero" fill="#152157" d="m317.341093,881.455629c0.47038,1.1387 0.67331,2.3703 0.59314,3.6c0.06108,1.0418 -0.11085,2.0842 -0.50327,3.051c-0.068,0.16751 -0.17975,0.31361 -0.32353,0.423c-0.14525,0.07889 -0.30359,0.13072 -0.46732,0.153c-0.68922,0.17876 -1.2763,0.63029 -1.6266,1.251c-0.34292,0.62538 -0.41126,1.3652 -0.18872,2.043c0.04493,0.126 0.10784,0.27 0.22467,0.315s0.39542,-0.081 0.55719,-0.207c1.0065,-0.756 2.5433,-0.351 3.5948,-1.08c0.49318,-0.38053 0.83168,-0.92739 0.95261,-1.539c0.11146,-0.59309 0.15369,-1.1971 0.12582,-1.8l-0.05392,-4.761c0.01953,-0.32839 -0.02004,-0.65763 -0.11683,-0.972c-0.13446,-0.31894 -0.3369,-0.60461 -0.59314,-0.837c-0.6573,-0.7131 -1.5219,-1.2011 -2.4714,-1.395c-0.5482,-0.09 -0.89869,-0.063 -0.55719,0.477c0.31302,0.40625 0.59826,0.83322 0.85376,1.278l-0.00007,0z"/>
      <path stroke="null" id="svg_149" fill-rule="nonzero" fill="url(#svg_91)" d="m315.921093,892.840629c-0.11683,0.153 -0.35049,0.558 0.0719,0.405c0.06858,-0.00938 0.13812,-0.00938 0.2067,0c-0.26684,0.28242 -0.44767,0.63523 -0.52124,1.017c-0.01745,0.10125 -0.01745,0.20475 0,0.306c0.0159,0.10649 0.08811,0.19603 0.18872,0.234c0.12426,0.02051 0.25142,-0.01214 0.35049,-0.09c0.33249,-0.13884 0.56084,-0.45069 0.59314,-0.81l0.28758,-1.071c0.03681,-0.08518 0.05519,-0.1772 0.05392,-0.27c0.00028,-0.09854 -0.01801,-0.19625 -0.05392,-0.288c-0.02388,-0.07087 -0.07151,-0.13129 -0.1348,-0.171c-0.1549,-0.01831 -0.31059,0.02716 -0.43137,0.126c-0.22627,0.18007 -0.4313,0.3854 -0.61111,0.612l-0.00001,0z"/>
      <path stroke="null" id="svg_150" fill-rule="nonzero" fill="#152157" d="m318.791093,894.937629c-0.89869,1.404 -2.2917,4.5 -3.406,3.897c0,0 -0.4134,-3.6 1.0425,-3.753s2.1928,-4.878 0.57516,-4.194c-0.27706,0.12371 -0.52278,0.30827 -0.71895,0.54c0.15655,-0.193 0.32781,-0.37354 0.51226,-0.54c0.42447,-0.45296 0.97586,-0.76671 1.5817,-0.9c0.30376,-0.02724 0.60451,-0.08145 0.89869,-0.162c0.48676,-0.25296 0.88491,-0.64855 1.1413,-1.134c0.26253,-0.47455 0.72478,-0.80521 1.2582,-0.9c0.07068,-0.01869 0.145,-0.01869 0.21569,0c-0.11683,2.808 -1.4649,4.608 -3.1005,7.146l-0.00005,0z"/>
      <path stroke="null" id="svg_151" fill-rule="nonzero" fill="#557eb5" d="m247.401093,896.719629l4.7721,3.78l5.8685,-3.384l4.6822,-8.856l-6.7132,-12.06l0,12.375c0.76389,-0.198 1.3211,0.279 1.3211,1.215c-0.07089,1.2603 -0.73881,2.4108 -1.7974,3.096c-0.98856,0.576 -1.7974,0.117 -1.7974,-1.026c0.06974,-1.0387 0.54418,-2.0083 1.3211,-2.7l0,-12.249l-7.6569,19.809l-0.0001,0z"/>
      <path stroke="null" id="svg_152" fill-rule="nonzero" fill="url(#svg_89)" d="m251.371093,902.299629l7.3783,-4.266c0.24162,-0.16787 0.38595,-0.4435 0.38644,-0.738c0,-0.288 -0.17075,-0.414 -0.38644,-0.288l-7.3783,4.257c-0.24162,0.16787 -0.38595,0.4435 -0.38644,0.738c0,0.297 0.17075,0.378 0.38644,0.297z"/>
      <polygon stroke="null" id="svg_153" fill-rule="nonzero" fill="url(#svg_88)" points="252.2410659790039,902.1287218332291 258.04105377197266,898.7716661691666 258.04105377197266,901.6066271066666 252.2410659790039,904.9546495676041 "/>
      <ellipse stroke="#1C73B3" id="svg_154" stroke-width="0.972" ry="1" rx="1.4125" cy="879.165629" cx="385.111092" transform="rotate(-59.689998626708984 265.0810241699219,856.5326538085938) translate(-120.02999877929688,-22.632999420166016) "/>
      <ellipse stroke="#1C73B3" id="svg_155" stroke-width="0.972" ry="1" rx="1.4125" cy="950.53563" cx="344.739095" transform="rotate(-59.689998626708984 244.89505004882832,892.2177124023439) translate(-99.84400177001953,-58.31800079345703) "/>
      <path stroke="url(#svg_87)" id="svg_156" stroke-width="0.972" d="m245.471093,891.229629l18.9,-33.48"/>
      <polygon stroke="null" id="svg_157" fill-rule="nonzero" fill="url(#svg_86)" points="254.03104400634766,876.0826402902603 257.7310562133789,873.9496446847916 257.7310562133789,869.7016588449478 254.03104400634766,871.8346544504166 "/>
      <path stroke="url(#svg_85)" id="svg_158" stroke-width="0.972" d="m273.561093,863.185629c0,-0.297 -7.1895,-5.805 -18.36,10.8c-3.5229,5.274 -16.689,12.114 -20.194,2.817"/>
      <polygon stroke="null" id="svg_159" fill-rule="nonzero" fill="url(#svg_84)" points="272.8610610961914,865.2556749582291 274.9810562133789,864.0226427316666 274.9810562133789,861.3856798410416 272.8610610961914,862.6186510324478 "/>
      <polygon stroke="null" id="svg_160" fill-rule="nonzero" fill="url(#svg_83)" points="233.9500503540039,878.7376695871353 236.0800552368164,877.5046373605728 236.0800552368164,874.8676744699478 233.9500503540039,876.1006456613541 "/>
      <path stroke="null" id="svg_161" fill-rule="nonzero" fill="#152157" d="m307.201093,888.853629c-0.59653,0.07898 -1.2009,0.07898 -1.7974,0c-1.375,-0.234 -2.3815,-1.368 -3.6577,-1.647c-0.67402,-0.144 -0.79085,0.333 -1.0245,0.999c-0.16653,0.50338 -0.2633,1.0273 -0.28758,1.557l0,0.099c-0.52817,-0.38416 -0.86072,-0.98166 -0.90919,-1.6336c-0.04848,-0.65192 0.19203,-1.2922 0.65756,-1.7504c0.0701,-0.04864 0.12346,-0.1178 0.15278,-0.198c0.01357,-0.0653 0.01357,-0.1327 0,-0.198c-0.17711,-0.55813 -0.2887,-1.135 -0.33252,-1.719c-0.02883,-0.59454 0.33714,-1.137 0.89869,-1.332c0.37204,-0.04851 0.7479,0.05532 1.0425,0.288c0.75863,0.65368 1.3711,1.4602 1.7974,2.367c0.42443,0.78525 0.98426,1.4891 1.6536,2.079c0.52124,0.378 1.4199,0.576 1.8064,1.089l-0.00004,0z"/>
      <polygon stroke="null" id="svg_162" fill-rule="nonzero" fill="url(#svg_82)" points="297.8610610961914,923.8006578683853 297.8610610961914,916.2317491769791 285.91104888916016,925.9247423410416 287.41104888916016,928.0397325754166 "/>
      <path stroke="null" id="svg_163" fill-rule="nonzero" fill="url(#svg_81)" d="m318.031093,918.868629l-5.4551,13.923l-2.8129,1.683l8.7623,8.469s8.942,-10.071 10.398,-20.7c0.76389,-5.625 -0.89869,-12.006 -6.4257,-8.757c-2.044,1.2478 -3.6154,3.1413 -4.4665,5.382l-0.0001,0z"/>
      <path stroke="null" id="svg_164" opacity="0.22" fill-rule="nonzero" fill="url(#svg_80)" d="m362.371093,926.743629l-28.39,-16.416c-1.3131,-0.75921 -2.1217,-2.1626 -2.1209,-3.681l0,-39.924c-0.00167,-0.69722 0.36962,-1.3419 0.97307,-1.6897c0.60345,-0.34772 1.3466,-0.34518 1.9477,0.00666l28.938,16.731c1.2822,0.74124 2.0655,2.1174 2.0493,3.6l0,39.429c-0.00739,0.80668 -0.44186,1.5488 -1.1413,1.9491c-0.6994,0.40024 -1.5585,0.3983 -2.2561,-0.00508l0.00023,0.00002z"/>
      <polygon stroke="null" id="svg_165" fill-rule="nonzero" fill="url(#svg_79)" points="346.19107818603516,878.7196642160416 346.19107818603516,904.3246446847916 336.67105865478516,886.0186754465103 "/>
      <ellipse stroke="null" id="svg_166" fill-rule="nonzero" fill="url(#svg_78)" ry="7.0894" rx="4.0906" cy="944.483629" cx="554.191101" transform="rotate(-30.309999465942383 349.621063232422,889.1916503906249) translate(-204.57000732421875,-55.29199981689453) "/>
      <polygon stroke="null" id="svg_167" fill-rule="nonzero" fill="url(#svg_77)" points="358.7110366821289,906.4216295480728 343.9910659790039,897.9166246652603 343.9910659790039,894.7756944894791 358.7110366821289,903.2806993722916 "/>
      <polygon stroke="null" id="svg_168" fill-rule="nonzero" fill="url(#svg_76)" points="356.19107818603516,900.2926622629166 356.19107818603516,914.9357286691666 348.82108306884766,910.6697374582291 "/>
      <path stroke="null" id="svg_169" fill-rule="nonzero" fill="url(#svg_75)" d="m322.561093,893.929629c-0.42239,2.493 -3.5948,5.193 -5.5989,4.851s-3.2443,-2.637 -2.8219,-5.13c0.42239,-2.493 2.3815,-4.239 4.3676,-3.897s4.4845,1.683 4.0531,4.176l0.0001,0z"/>
      <ellipse stroke="null" id="svg_170" fill-rule="nonzero" fill="url(#svg_74)" ry="3.3792" rx="4.2478" cy="955.663629" cx="493.771094" transform="rotate(-80.26000213623047 319.41104125976574,894.7816772460939) translate(-174.36000061035156,-60.88199996948242) "/>
      <path stroke="null" id="svg_171" fill-rule="nonzero" fill="url(#svg_73)" d="m318.501093,890.311629s2.067,-9.819 -1.375,-12.411c-1.3816,-0.87851 -2.9668,-1.3839 -4.6013,-1.467c1.3451,-0.33736 2.7589,-0.27797 4.0711,0.171c3.3971,1.476 4.7541,4.005 3.7835,13.707l-1.8783,0z"/>
      <path stroke="null" id="svg_172" fill-rule="nonzero" fill="url(#svg_72)" d="m318.931093,890.311629s2.067,-9.819 -1.375,-12.411c-1.3787,-0.87778 -2.9608,-1.3832 -4.5923,-1.467c1.3423,-0.33558 2.7527,-0.27621 4.0621,0.171c3.406,1.476 4.7631,4.005 3.7835,13.707l-1.8783,0z"/>
      <path stroke="null" id="svg_173" fill-rule="nonzero" fill="#fff" d="m342.261093,981.889629l-0.64706,-1.44l-2.9747,1.719l-0.63807,2.187l-1.5817,0.9l3.0106,-9.9l1.4289,-0.819l3.0196,6.408l-1.6176,0.945l0.00003,0zm-2.1299,-4.779l-0.89869,3.168l1.8693,-1.08l-0.97059,-2.088l-0.00002,0z"/>
      <path stroke="null" id="svg_174" fill-rule="nonzero" fill="#fff" d="m344.831093,973.529629l0,-1.566l1.6087,-0.9l0,1.557l-1.6087,0.909zm0,6.849l0,-6.192l1.5278,-0.9l0,6.192l-1.5278,0.9z"/>
      <path stroke="null" id="svg_175" fill-rule="nonzero" fill="#fff" d="m381.411093,936.279629l-1.1773,0.675l0,2.43l-1.5458,0.9l0,-8.1l2.8668,-1.665c1.6806,-0.972 2.6961,-0.414 2.6961,1.242c-0.09388,1.8993 -1.1704,3.6119 -2.8399,4.518l0.0001,0zm1.2761,-3.6c0,-0.792 -0.48529,-0.945 -1.2582,-0.495l-1.1953,0.693l0,2.466l1.1773,-0.639c0.71479,-0.39066 1.1796,-1.1211 1.2312,-1.935l0.04494,-0.09l0.00006,0z"/>
      <path stroke="null" id="svg_176" fill-rule="nonzero" fill="#fff" d="m387.091093,935.509629c-0.68011,0.45115 -1.5184,0.59488 -2.3096,0.396l0.65605,-1.53c0.57593,0.14822 1.1871,0.06079 1.6985,-0.243c0.34672,-0.14482 0.58996,-0.46388 0.63807,-0.837c0,-0.387 -0.52124,-0.207 -1.1144,-0.072c-0.7549,0.18 -1.6087,0.27 -1.6087,-0.9c0.08683,-1.3026 0.82805,-2.472 1.9681,-3.105c0.59892,-0.37813 1.3112,-0.53416 2.0131,-0.441l-0.58415,1.548c-0.50048,-0.06215 -1.008,0.02884 -1.4559,0.261c-0.3044,0.13971 -0.51748,0.42424 -0.56618,0.756c0,0.351 0.51226,0.216 1.0964,0.108c0.7549,-0.144 1.6266,-0.234 1.6266,0.9c-0.07672,1.3444 -0.8602,2.5471 -2.058,3.159l0.00011,0z"/>
      <polygon stroke="null" id="svg_177" fill-rule="nonzero" fill="#fff" points="211.21306610107422,937.1895738840103 211.21306610107422,929.0927110910416 212.76805877685547,928.1926866769791 212.76805877685547,936.2896715402603 "/>
      <path stroke="null" id="svg_178" fill-rule="nonzero" fill="#fff" d="m218.250093,933.124629l0,-0.9c-0.33912,0.815 -0.92338,1.5039 -1.6716,1.971c-1.2582,0.729 -2.4534,0.288 -2.4534,-1.8c-0.01681,-1.8585 0.90645,-3.5993 2.4534,-4.626c0.80882,-0.468 1.3121,-0.333 1.6716,-0.045l0,-3.051l1.5278,-0.9l0,8.442l-1.5278,0.909zm0,-3.123c0,-1.026 -0.60212,-1.368 -1.3121,-0.954c-0.81665,0.55503 -1.3075,1.4776 -1.3121,2.466c0,1.026 0.60212,1.359 1.3121,0.9c0.81643,-0.55108 1.3077,-1.471 1.3121,-2.457l0,0.045z"/>
      <polygon stroke="url(#svg_71)" id="svg_179" stroke-width="0.972" points="397.7010269165039,937.2896715402603 370.0910415649414,953.2496935129166 370.0910415649414,928.0397325754166 397.7010269165039,912.0827013254166 "/>
      <path stroke="url(#svg_70)" id="svg_180" stroke-width="0.63" d="m309.001093,1013.279629c-1.8264,2.7702 -4.2377,5.1052 -7.0637,6.84c-6.4257,3.708 -11.62,0.738 -11.62,-6.633s5.1944,-16.362 11.62,-20.07c2.6961,-1.539 5.1136,-1.935 7.0637,-1.341c-2.768,4.041 -4.5564,8.919 -4.5564,13.239s1.7884,7.137 4.5564,7.965z"/>
      <path stroke="url(#svg_69)" id="svg_181" stroke-width="0.63" d="m313.551093,1000.049629c0,4.32 -1.7974,9.189 -4.5564,13.23c-2.768,-0.828 -4.5564,-3.645 -4.5564,-7.965s1.7974,-9.198 4.5564,-13.239c2.768,0.837 4.5564,3.654 4.5564,7.974z"/>
      <path stroke="url(#svg_68)" id="svg_182" stroke-width="0.63" d="m327.681093,991.879629c0,7.371 -5.2034,16.362 -11.62,20.07c-2.6511,1.53 -5.1046,1.926 -7.0637,1.332c2.768,-4.041 4.5564,-8.91 4.5564,-13.23s-1.7974,-7.137 -4.5564,-7.974c1.829,-2.7656 4.2399,-5.0971 7.0637,-6.831c6.4167,-3.744 11.62,-0.747 11.62,6.633z"/>
      <path stroke="url(#svg_67)" id="svg_183" stroke-width="0.63" d="m306.991093,995.499629l3.1993,-2.898"/>
      <path stroke="url(#svg_66)" id="svg_184" stroke-width="0.63" d="m305.901093,998.009629l5.2214,-4.725"/>
      <path stroke="url(#svg_65)" id="svg_185" stroke-width="0.63" d="m305.171093,1000.179629l6.5694,-5.94"/>
      <path stroke="url(#svg_64)" id="svg_186" stroke-width="0.63" d="m304.591093,1002.209629l7.8905,-7.137"/>
      <path stroke="url(#svg_63)" id="svg_187" stroke-width="0.63" d="m304.591093,1003.719629l8.4387,-7.623"/>
      <path stroke="url(#svg_62)" id="svg_188" stroke-width="0.63" d="m304.441093,1005.309629l8.6993,-7.803"/>
      <path stroke="url(#svg_61)" id="svg_189" stroke-width="0.63" d="m304.591093,1006.749629l8.96,-8.1"/>
      <path stroke="url(#svg_60)" id="svg_190" stroke-width="0.63" d="m304.841093,1008.099629l8.7173,-8.046"/>
      <path stroke="url(#svg_59)" id="svg_191" stroke-width="0.63" d="m305.171093,1009.259629l8.2949,-7.497"/>
      <path stroke="url(#svg_58)" id="svg_192" stroke-width="0.63" d="m305.571093,1010.409629l7.567,-6.786"/>
      <path stroke="url(#svg_57)" id="svg_193" stroke-width="0.63" d="m306.201093,1011.359629l6.5245,-5.904"/>
      <path stroke="url(#svg_56)" id="svg_194" stroke-width="0.63" d="m306.991093,1012.159629l4.9967,-4.518"/>
     </g>
    </g>
   </g>
  </g>
 </g>
</svg>