<svg width="800" height="600" xmlns="http://www.w3.org/2000/svg">
 <!-- Created with Method Draw - http://github.com/duopixel/Method-Draw/ -->

 <g>
  <title>background</title>
  <rect fill="none" id="canvas_background" height="602" width="802" y="-1" x="-1"/>
  <g display="none" overflow="visible" y="0" x="0" height="100%" width="100%" id="canvasGrid">
   <rect fill="url(#gridpattern)" stroke-width="0" y="0" x="0" height="100%" width="100%"/>
  </g>
 </g>
 <g>
  <title>Layer 1</title>
  <defs>
   <linearGradient y2="-0.000092" x2="0.500228" y1="1.000063" x1="0.500228" id="svg_5">
    <stop stop-opacity="0.25" stop-color="gray" offset="0"/>
    <stop stop-opacity="0.12" stop-color="gray" offset="0.54"/>
    <stop stop-opacity="0.1" stop-color="gray" offset="1"/>
   </linearGradient>
  </defs>
  <g stroke="null" id="svg_55">
   <path stroke="null" id="svg_7" opacity="0.65" fill="#d3edff" d="m437.972271,137.868623c-39.367792,-1.368627 -76.862086,-14.075567 -112.671448,-27.980816s-71.265922,-29.312946 -109.690882,-36.6792c-24.71436,-4.73849 -52.974984,-5.407597 -72.890026,7.840711c-19.160776,12.773851 -25.353053,34.763123 -28.686419,55.183036c-2.500025,15.371201 -3.978142,31.539246 2.889323,45.925035c4.762822,9.987935 13.223977,18.38218 19.075617,27.950402c20.353002,33.285006 5.967213,74.331647 -16.095052,106.831973c-10.340736,15.243462 -22.348156,29.805652 -30.334854,46.02236s-11.678949,34.823951 -4.695911,51.381295c6.928293,16.423523 23.430892,28.735082 41.302118,37.403052c36.30815,17.603583 79.07622,22.646213 120.816298,25.49904c92.348859,6.320015 185.196507,3.582761 277.788677,0.845507c34.270417,-1.015825 68.686821,-2.043816 102.397622,-7.341923c18.722816,-2.944068 38.05391,-7.615648 51.642854,-18.856637c17.250781,-14.312796 21.52698,-38.552699 9.969686,-56.496918c-19.391922,-30.103709 -72.993434,-37.585536 -86.56413,-69.891213c-7.463579,-17.779984 0.200732,-37.591618 11.040257,-54.082052c23.260574,-35.383567 62.245151,-66.417942 64.301132,-106.862387c1.411206,-27.774002 -17.329858,-55.590583 -46.308251,-68.735483c-30.377434,-13.777511 -72.494645,-12.043917 -94.891464,10.760449c-23.090256,23.455223 -63.638109,32.488161 -98.395149,31.283769z"/>
   <path stroke="null" id="svg_8" fill="url(#svg_5)" d="m336.687799,466.393819c-0.608279,-2.201969 -1.216557,-4.428268 -2.433114,-6.344346a22.220418,22.220418 0 0 0 -3.984225,-4.361358c-4.41002,-4.002473 -9.8237,-8.065774 -15.669257,-7.056032a20.918702,20.918702 0 0 0 -5.194699,1.897829c-0.85159,0.395381 -1.709263,0.790762 -2.585184,1.125315a12.877258,12.877258 0 0 1 -7.798132,0.681272c-1.338213,-0.358884 -2.585184,-1.00366 -3.905149,-1.405124a12.37847,12.37847 0 0 0 -1.916078,-0.413629a32.628065,32.628065 0 0 0 3.704417,-1.952574c6.557243,-4.014639 11.78844,-11.271403 11.058505,-19.033038c-0.249394,-2.609515 -1.143564,-5.10954 -2.031651,-7.573069l-2.33579,-6.459919c-1.009742,-2.798082 -2.055982,-5.650908 -3.899066,-7.974533c-2.049899,-2.591267 -4.969636,-4.349192 -7.986698,-5.656991c-6.478167,-2.81633 -13.55853,-3.807824 -20.547652,-4.768904l-0.486623,-0.066911l0,-75.505624a4.866229,4.866229 0 0 0 -4.866229,-4.866229l-9.185007,0q-0.608279,-3.722665 -1.216557,-7.433165c-1.155729,-7.062115 -2.354038,-14.251968 -5.608329,-20.608479c-2.128975,-4.160626 -5.517087,-8.132685 -10.085259,-8.947778a9.78112,9.78112 0 0 1 -2.621681,-0.608279c-1.338213,-0.656941 -2.068147,-2.11681 -3.096138,-3.193463c-2.652095,-2.779833 -6.96479,-2.822413 -10.517137,-4.25795c-3.138718,-1.246971 -5.705653,-3.594927 -8.564563,-5.401514s-6.411257,-3.090055 -9.574305,-1.916078c0,0.231146 -0.04258,0.462292 -0.066911,0.687355l-2.031651,-0.936749c-2.189803,-1.015825 -4.422186,-2.055982 -6.180111,-3.722665c-2.256714,-2.128975 -3.461105,-4.951388 -4.397854,-7.950201c-0.097325,-0.310222 -0.188566,-0.608279 -0.285891,-0.942832a28.242376,28.242376 0 0 0 7.566986,-14.446617l0.492706,1.599773a10.614462,10.614462 0 0 0 0.389298,1.058405a4.172791,4.172791 0 0 0 1.216557,1.721428a2.159389,2.159389 0 0 0 0.510954,0.298057a2.128975,2.128975 0 0 0 0.52312,0.133821a1.946492,1.946492 0 0 0 0.754265,-0.054745a2.877158,2.877158 0 0 0 1.824836,-1.691015a3.649672,3.649672 0 0 0 0.212898,-0.7421a3.838238,3.838238 0 0 0 0.04258,-0.462292c0,-0.048662 0,-0.097325 0,-0.145987s0,-0.212898 0,-0.316305s0,-0.10949 0,-0.170318s0,-0.200732 -0.030414,-0.304139l0,-0.158152c0,-0.121656 -0.036497,-0.243311 -0.060828,-0.358884s0,-0.066911 0,-0.097325c-0.030414,-0.15207 -0.066911,-0.310222 -0.097325,-0.462292c0,-0.036497 0,-0.079076 0,-0.115573s-0.054745,-0.249394 -0.085159,-0.377133s-0.04258,-0.164235 -0.060828,-0.249394l0,-0.036497l0,0c-0.060828,-0.243311 -0.115573,-0.48054 -0.170318,-0.723852a20.912619,20.912619 0 0 1 -0.334553,-6.423422a68.784146,68.784146 0 0 1 1.739677,-9.337077l0.127739,-0.553534c0.048662,-0.212898 0.097325,-0.425795 0.139904,-0.644775c0.097325,-0.437961 0.194649,-0.875921 0.285891,-1.319965l0,0l0.21898,-1.119233l0.164235,-0.997577l0,-0.127739a28.838489,28.838489 0 0 0 0.212898,-6.830969l0,0c-0.279808,-3.181297 -1.26522,-6.192276 -3.424609,-8.588894c-1.526779,-1.697097 -3.540182,-2.950151 -4.957471,-4.732408c-1.326047,-1.666683 -2.07423,-3.722665 -3.44894,-5.358935c-3.795659,-4.531676 -13.540282,-8.023195 -19.519661,-8.631474c-6.849217,-0.693438 -17.913805,1.058405 -23.436975,5.103458c-2.043816,1.490283 -3.442857,3.649672 -4.866229,5.693488c-2.615598,3.801741 -5.583998,7.5974 -9.775037,9.732458c-1.581524,0.802928 -3.394195,1.411206 -4.446517,2.810247a7.5974,7.5974 0 0 0 -1.186143,3.150883a62.476296,62.476296 0 0 0 -1.253054,12.031751l0,0c0,0.504871 0,1.009742 0,1.520697a11.088919,11.088919 0 0 0 0.948915,4.397854c0.097325,0.206815 0.206815,0.407547 0.322388,0.608279l0.072993,0.127739a24.197323,24.197323 0 0 1 1.946492,3.315118a4.391772,4.391772 0 0 1 0.298057,1.009742a7.44533,7.44533 0 0 1 -0.170318,2.66426l0,0c0,0.133821 -0.054745,0.267643 -0.079076,0.401464l-0.054745,0.26156c0,0.091242 0,0.182484 -0.048662,0.267643c-0.048662,0.26156 -0.091242,0.52312 -0.127739,0.778597l0,0a5.474508,5.474508 0 0 0 0.133821,2.104644a2.767668,2.767668 0 0 0 1.350379,1.824836a3.953811,3.953811 0 0 0 1.094902,0.340636c0.383216,0.066911 0.772514,0.10949 1.149647,0.194649a5.675239,5.675239 0 0 1 1.392958,0.517037a5.608329,5.608329 0 0 1 1.173978,0.754265a6.691065,6.691065 0 0 1 0.504871,0.510954a8.515901,8.515901 0 0 1 0.863756,1.180061q0.194649,0.322388 0.364967,0.656941a15.006233,15.006233 0 0 1 1.040156,2.749419c0.158152,0.565699 0.291974,1.137481 0.407547,1.709263c0.054745,0.255477 0.103407,0.510954 0.145987,0.760348s0.085159,0.504871 0.121656,0.754265l0,0a1.770091,1.770091 0 0 0 0.486623,-0.097325c0.89417,-0.322388 1.392958,-1.362544 1.672766,-2.372287c0.048662,-0.170318 0.091242,-0.334553 0.127739,-0.498788c0.139904,-0.608279 0.285891,-1.277385 0.425795,-1.916078a28.205879,28.205879 0 0 0 11.101085,12.2264c0.170318,0.504871 0.334553,1.00366 0.48054,1.514614c0.796845,2.755502 1.180061,5.638743 -0.200732,8.047526c-0.985411,1.709263 -2.639929,2.761585 -4.489096,3.491519a2.9684,2.9684 0 0 0 -1.00366,-0.85159c-1.599773,-0.802928 -3.521933,0.170318 -4.866229,1.368627c-2.433114,2.201969 -4.416103,5.358935 -7.615648,6.082786c-1.155729,0.267643 -2.433114,0.212898 -3.394195,0.918501a7.907622,7.907622 0 0 0 -1.575442,2.068147a7.250681,7.250681 0 0 1 -6.22269,3.102221c-1.11315,-0.054745 -2.433114,-0.310222 -3.193463,0.504871c-0.565699,0.608279 -0.608279,1.569359 -1.216557,2.147224c-0.815093,0.802928 -2.153306,0.413629 -3.290787,0.364967c-2.165472,-0.091242 -4.178874,1.307799 -5.41368,3.102221s-1.824836,3.941645 -2.433114,6.082786l0,0.036497a4.349192,4.349192 0 0 0 -0.444043,0.37105a6.417339,6.417339 0 0 0 -1.344296,2.177637a103.936567,103.936567 0 0 0 -8.576728,35.38965a3.649672,3.649672 0 0 1 -0.389298,1.715346a8.436824,8.436824 0 0 1 -0.89417,0.973246a3.412443,3.412443 0 0 0 0.565699,4.866229a3.832155,3.832155 0 0 1 0.650858,-0.863756c-0.066911,0.279808 -0.127739,0.553534 -0.170318,0.802928a21.587808,21.587808 0 0 0 -0.066911,5.352852q0.863756,12.676526 1.74576,25.334804c0.164235,2.390535 0.32847,4.774987 0.547451,7.159439q0.638693,6.922211 1.824836,13.789676c0.036497,0.206815 0.079076,0.419712 0.133821,0.608279c-4.957471,1.575442 -9.367491,4.422186 -11.22274,9.172841c-0.644775,1.642352 -0.936749,3.430691 -1.727511,5.006133c-0.869838,1.727511 -2.299293,3.108304 -3.248208,4.799318c-1.636269,2.907572 -1.709263,6.472084 -1.11315,9.732458c1.149647,6.356512 4.586421,12.037834 9.124179,16.660751c-0.200732,0 -0.407547,0 -0.608279,0a9.513478,9.513478 0 0 0 -4.154543,1.490283c-9.598637,5.608329 -15.08531,17.64008 -13.084073,28.625592c0.395381,2.147224 1.082736,4.324861 2.518273,5.96113a9.434401,9.434401 0 0 0 4.428268,2.712923a15.383366,15.383366 0 0 0 3.266456,0.608279c7.481827,0.608279 14.726425,-2.858909 22.226501,-3.150883a59.611304,59.611304 0 0 1 7.439247,0.346719q5.419762,0.450126 10.857773,0.571782c5.89422,0.139904 9.209338,-1.429455 12.9685,-5.833392a15.876072,15.876072 0 0 0 2.29321,-3.613175c3.199546,-0.182484 6.733644,-0.462292 9.288414,-0.669106l0.036497,0.352802c0.139904,1.216557 0.352802,2.615598 1.326047,3.382029a4.629,4.629 0 0 0 1.824836,0.748183c6.143614,1.508531 12.360221,3.041393 18.686319,3.041393a78.899819,78.899819 0 0 0 8.874785,-0.681272l11.11325,-1.283468a55.353354,55.353354 0 0 1 9.549974,2.080313c3.211711,1.088819 6.210525,2.70684 9.349242,3.990308c7.299343,2.956234 15.146137,4.014639 22.919938,5.048712c1.326047,0.176401 2.846744,0.298057 3.826072,-0.608279c1.26522,-1.216557 0.845507,-3.248208 0.486623,-4.951388c-0.145987,-0.69952 -0.255477,-1.399041 -0.340636,-2.104644a106.600827,106.600827 0 0 1 15.352952,5.328521l0.869838,0.383216c0.255477,1.326047 1.478117,2.384452 2.652095,3.813907a9.732458,9.732458 0 0 0 1.344296,1.666683a4.483013,4.483013 0 0 0 1.928243,0.693438a89.915745,89.915745 0 0 0 24.896844,1.125315a25.462543,25.462543 0 0 1 5.133872,-0.176401a22.250832,22.250832 0 0 1 3.7105,0.833342l7.037784,2.019485c5.188617,1.4842 10.498889,2.986648 15.882155,2.652095a20.316506,20.316506 0 0 0 3.242125,-0.468375c4.25795,-0.985411 8.223927,-3.363781 10.267743,-7.189853c2.889323,-5.200782 1.557193,-11.599873 0,-17.317692z"/>
   <path stroke="null" id="svg_9" fill="#fbbebe" d="m139.781929,465.207676c-1.283468,-2.919737 -2.500025,-6.277435 -1.216557,-9.197173a7.81638,7.81638 0 0 1 4.045053,-3.801741a19.464916,19.464916 0 0 1 5.474508,-1.350379a76.405877,76.405877 0 0 1 17.798232,-0.243311c0.431878,3.418526 -0.48054,6.885714 -1.26522,10.188667c-0.711686,3.041393 -1.119233,3.491519 -4.25795,3.649672c-2.031651,0.10949 -20.097525,1.830919 -20.578066,0.754265z"/>
   <ellipse stroke="null" transform="matrix(0.6082786140425446,0,0,0.6082786140425446,-6185.266699845368,-4636.606756218761) " id="svg_10" fill="#464353" ry="40" rx="143" cy="8314.918704" cx="10487.32553"/>
   <ellipse stroke="null" transform="matrix(0.6082786140425446,0,0,0.6082786140425446,-6185.266699845368,-4636.606756218761) " id="svg_11" opacity="0.1" ry="40" rx="143" cy="8314.918704" cx="10487.32553"/>
   <path stroke="null" id="svg_12" fill="#fbbebe" d="m209.545403,292.736358a27.062316,27.062316 0 0 1 -13.953911,12.676526a35.024683,35.024683 0 0 1 -11.076754,2.104644c-4.130212,0.188566 -8.345583,-0.079076 -12.2264,-1.490283c-5.206865,-1.885664 -9.531726,-5.74215 -12.773851,-10.237329s-5.474508,-9.62905 -7.414916,-14.805501c-1.021908,-2.694674 -1.995154,-5.565749 -1.514614,-8.412493c3.132635,-0.711686 6.563326,-1.757925 8.181347,-4.537758c1.380792,-2.384452 0.997577,-5.243362 0.200732,-7.96845c-0.225063,-0.772514 -0.486623,-1.538945 -0.748183,-2.274962c-0.608279,-1.764008 -2.70684,-5.115623 -1.216557,-6.624154c0.930666,-0.954997 4.829732,-1.44162 6.174028,-2.062065c4.142377,-1.909995 7.962367,-4.67158 12.512291,-5.577915c3.935563,-0.784679 7.998864,-0.048662 11.928344,0.766431a3.923397,3.923397 0 0 1 1.472034,0.529202a3.540182,3.540182 0 0 1 1.094902,1.642352c1.119233,2.725088 1.776174,5.736067 2.676426,8.576728c0.936749,2.974482 2.141141,5.766481 4.397854,7.877208c1.757925,1.648435 3.99639,2.682509 6.186194,3.686168l5.389349,2.469611a7.086446,7.086446 0 0 1 2.548687,1.648435a6.453836,6.453836 0 0 1 1.216557,3.309036a30.912719,30.912719 0 0 1 -3.053559,18.704567z"/>
   <path stroke="null" id="svg_13" opacity="0.1" d="m192.835989,255.041332a27.980816,27.980816 0 0 1 -33.86287,5.024381c-0.225063,-0.772514 -0.486623,-1.538945 -0.748183,-2.274962c-0.608279,-1.764008 -2.70684,-5.115623 -1.216557,-6.624154c0.930666,-0.954997 4.829732,-1.44162 6.174028,-2.062065c4.142377,-1.909995 7.962367,-4.67158 12.512291,-5.577915c3.935563,-0.784679 7.998864,-0.048662 11.928344,0.766431a3.923397,3.923397 0 0 1 1.472034,0.529202a3.540182,3.540182 0 0 1 1.094902,1.642352c1.088819,2.725088 1.74576,5.736067 2.646012,8.576728z"/>
   <circle stroke="null" transform="matrix(0.6082786140425446,0,0,0.6082786140425446,-6185.266699845368,-4636.606756218761) " id="svg_14" fill="#fbbebe" r="46" cy="8007.918704" cx="10452.32553"/>
   <path stroke="null" id="svg_15" fill="#3282b8" d="m257.909635,325.24885l-2.299293,-13.92958c-1.161812,-6.989121 -2.360121,-14.112064 -5.608329,-20.407748c-2.135058,-4.124129 -5.52317,-8.053609 -10.091342,-8.868702a9.762872,9.762872 0 0 1 -2.627764,-0.608279c-1.338213,-0.644775 -2.068147,-2.092478 -3.096138,-3.163049c-2.652095,-2.749419 -6.970873,-2.791999 -10.52322,-4.19104c-3.138718,-1.216557 -5.705653,-3.55843 -8.564563,-5.346769s-6.417339,-3.041393 -9.580388,-1.897829c-0.510954,5.444094 -1.052322,11.009843 -3.363781,15.967314a23.893184,23.893184 0 0 1 -36.046591,8.978192c-5.419762,-4.08155 -8.893033,-10.377233 -10.511054,-16.964891c-0.395381,-1.605856 -0.845507,-3.44894 -2.323624,-4.184957c-1.599773,-0.802928 -3.521933,0.170318 -4.866229,1.350379c-2.433114,2.18372 -4.422186,5.310272 -7.621731,6.046289c-1.155729,0.267643 -2.433114,0.212898 -3.394195,0.912418a7.725138,7.725138 0 0 0 -1.581524,2.049899a7.299343,7.299343 0 0 1 -6.22269,3.07789c-1.11315,-0.054745 -2.433114,-0.310222 -3.193463,0.498788c-0.565699,0.608279 -0.608279,1.557193 -1.216557,2.122892c-0.821176,0.796845 -2.153306,0.407547 -3.29687,0.364967c-2.165472,-0.091242 -4.178874,1.295633 -5.419762,3.041393s-1.824836,3.905149 -2.433114,5.997627c6.648485,14.805501 12.731271,29.629251 19.379757,44.434753a3.789576,3.789576 0 0 1 0.48054,1.824836a4.446517,4.446517 0 0 1 -0.827259,1.824836c-3.260373,5.237279 -3.156966,11.824936 -2.798082,17.980716s0.796845,12.658278 -1.952574,18.175365c-0.748183,1.514614 -1.721428,2.901489 -2.433114,4.416103c-1.666683,3.430691 -2.268879,14.404038 -1.295633,18.090206l137.519629,0c-2.621681,-7.208102 -1.624104,-21.672967 -1.076653,-29.325112c0.383216,-5.352852 -0.608279,-10.699621 -1.034074,-16.052473c-0.930666,-10.930767 -0.273725,-21.301917 -2.080313,-32.214435z"/>
   <path stroke="null" id="svg_16" fill="#fbbebe" d="m103.492026,341.185749a21.533063,21.533063 0 0 0 -0.072993,5.310272l1.74576,25.103658c0.164235,2.366204 0.32847,4.726325 0.547451,7.086446c0.419712,4.580338 1.046239,9.124179 1.824836,13.661938a2.433114,2.433114 0 0 0 2.493942,2.366204c7.694724,1.630187 15.644926,1.563276 23.497803,1.119233c11.983089,-0.669106 23.947929,-2.195886 35.949266,-1.934326c3.090055,0.066911 6.691065,0 8.564563,-2.433114s0.784679,-6.368677 -1.660601,-8.333417s-5.766481,-2.433114 -8.905199,-2.433114c-4.154543,-0.04258 -8.309086,0.547451 -12.451463,0.304139c-3.801741,-0.225063 -7.518324,-1.143564 -11.204492,-2.062065l-10.340736,-2.573019c0.395381,-3.132635 1.587607,-6.082786 2.719005,-9.057269c2.031651,-5.273776 3.92948,-10.723952 3.965977,-16.37486s-2.092478,-11.59379 -6.721479,-14.829833c-3.807824,-2.658178 -8.71055,-3.150883 -13.351716,-3.041393c-3.375946,0.097325 -9.209338,-0.711686 -12.293311,0.608279c-2.439197,1.07057 -3.850404,5.121706 -4.306613,7.512241z"/>
   <path stroke="null" id="svg_17" fill="#464353" d="m264.947419,398.582919c2.025568,-0.772514 4.25795,-0.492706 6.429505,-0.200732c6.989121,0.954997 14.08165,1.934326 20.559817,4.726325c3.041393,1.301716 5.936799,3.041393 7.992781,5.602246c1.824836,2.305376 2.889323,5.127789 3.899066,7.907622l2.33579,6.399091c0.888087,2.433114 1.788339,4.914891 2.037733,7.500075c0.729934,7.658228 -4.507345,14.878495 -11.095002,18.856637s-14.34321,5.395431 -21.89803,6.879631s-15.140055,3.126552 -22.664461,4.866229a91.241792,91.241792 0 0 1 -10.663124,2.098561c-8.053609,0.912418 -16.472185,-0.431878 -24.12433,2.232383c-3.041393,1.064488 -6.028041,2.646012 -9.185007,3.382029a57.13561,57.13561 0 0 1 -6.350429,0.967163l-14.483114,1.654518a79.009309,79.009309 0 0 1 -8.880868,0.681272c-6.326098,0 -12.548788,-1.496365 -18.692402,-2.992731a4.726325,4.726325 0 0 1 -1.824836,-0.736017c-0.973246,-0.766431 -1.186143,-2.122892 -1.326047,-3.351615q-0.930666,-8.157016 -1.630187,-16.332281c-0.145987,-1.770091 -0.255477,-3.686168 0.711686,-5.176451c1.216557,-1.824836 3.588844,-2.396618 5.754316,-2.749419a150.171824,150.171824 0 0 1 27.786167,-1.928243c3.534099,-3.534099 9.361408,-3.552347 13.990408,-5.474508a41.600174,41.600174 0 0 0 4.93314,-2.682509a64.477533,64.477533 0 0 1 27.086647,-8.55848a25.213149,25.213149 0 0 0 5.541418,-0.790762c3.582761,-1.11315 6.849217,-4.142377 10.529303,-3.400277c0.456209,-1.259137 0.772514,-2.944068 1.824836,-3.807824c0.52312,-0.444043 1.167895,-0.7421 1.648435,-1.216557c1.015825,-1.027991 1.107067,-2.646012 0.954997,-4.08155s-0.492706,-2.907572 -0.121656,-4.306613a5.955048,5.955048 0 0 1 0.675189,-1.502448c1.824836,-3.150883 4.580338,-4.768904 8.248258,-4.464765z"/>
   <path stroke="null" id="svg_18" opacity="0.05" d="m264.947419,398.582919c2.025568,-0.772514 4.25795,-0.492706 6.429505,-0.200732c6.989121,0.954997 14.08165,1.934326 20.559817,4.726325c3.041393,1.301716 5.936799,3.041393 7.992781,5.602246c1.824836,2.305376 2.889323,5.127789 3.899066,7.907622l2.33579,6.399091c0.888087,2.433114 1.788339,4.914891 2.037733,7.500075c0.729934,7.658228 -4.507345,14.878495 -11.095002,18.856637s-14.34321,5.395431 -21.89803,6.879631s-15.140055,3.126552 -22.664461,4.866229a91.241792,91.241792 0 0 1 -10.663124,2.098561c-8.053609,0.912418 -16.472185,-0.431878 -24.12433,2.232383c-3.041393,1.064488 -6.028041,2.646012 -9.185007,3.382029a57.13561,57.13561 0 0 1 -6.350429,0.967163l-14.483114,1.654518a79.009309,79.009309 0 0 1 -8.880868,0.681272c-6.326098,0 -12.548788,-1.496365 -18.692402,-2.992731a4.726325,4.726325 0 0 1 -1.824836,-0.736017c-0.973246,-0.766431 -1.186143,-2.122892 -1.326047,-3.351615q-0.930666,-8.157016 -1.630187,-16.332281c-0.145987,-1.770091 -0.255477,-3.686168 0.711686,-5.176451c1.216557,-1.824836 3.588844,-2.396618 5.754316,-2.749419a150.171824,150.171824 0 0 1 27.786167,-1.928243c3.534099,-3.534099 9.361408,-3.552347 13.990408,-5.474508a41.600174,41.600174 0 0 0 4.93314,-2.682509a64.477533,64.477533 0 0 1 27.086647,-8.55848a25.213149,25.213149 0 0 0 5.541418,-0.790762c3.582761,-1.11315 6.849217,-4.142377 10.529303,-3.400277c0.456209,-1.259137 0.772514,-2.944068 1.824836,-3.807824c0.52312,-0.444043 1.167895,-0.7421 1.648435,-1.216557c1.015825,-1.027991 1.107067,-2.646012 0.954997,-4.08155s-0.492706,-2.907572 -0.121656,-4.306613a5.955048,5.955048 0 0 1 0.675189,-1.502448c1.824836,-3.150883 4.580338,-4.768904 8.248258,-4.464765z"/>
   <path stroke="null" id="svg_19" fill="#3f3d56" d="m145.378092,468.966838c-3.765245,4.361358 -7.080363,5.918551 -12.974583,5.778647q-5.438011,-0.127739 -10.863856,-0.565699a60.949517,60.949517 0 0 0 -7.44533,-0.346719c-7.506158,0.291974 -14.750756,3.728748 -22.238666,3.126552a15.766582,15.766582 0 0 1 -3.266456,-0.608279a9.507395,9.507395 0 0 1 -4.434351,-2.688591c-1.435538,-1.624104 -2.122892,-3.77741 -2.518273,-5.906385c-2.001237,-10.912518 3.485436,-22.798282 13.090156,-28.351866a9.598637,9.598637 0 0 1 4.160626,-1.478117a9.860196,9.860196 0 0 1 4.209288,0.924583l0.091242,0.036497a31.83122,31.83122 0 0 1 10.425895,6.958707a5.875971,5.875971 0 0 0 1.59369,1.283468a5.474508,5.474508 0 0 0 1.879581,0.352802l7.992781,0.504871a18.941796,18.941796 0 0 1 4.014639,0.553534a31.910296,31.910296 0 0 1 4.221454,1.824836c4.30053,1.92216 9.069434,2.433114 13.716683,3.175214a2.049899,2.049899 0 0 1 1.216557,0.486623a1.903912,1.903912 0 0 1 0.377133,0.790762a15.517187,15.517187 0 0 1 -3.248208,14.148561z"/>
   <path stroke="null" id="svg_20" opacity="0.1" d="m103.187887,438.893543a47.993183,47.993183 0 0 0 -7.998864,10.0001a50.049164,50.049164 0 0 0 -6.532912,19.793386a36.740028,36.740028 0 0 0 -0.066911,7.670393a9.507395,9.507395 0 0 1 -4.434351,-2.688591c-1.435538,-1.624104 -2.122892,-3.77741 -2.518273,-5.906385c-2.001237,-10.912518 3.485436,-22.798282 13.090156,-28.351866a9.598637,9.598637 0 0 1 4.160626,-1.478117a9.860196,9.860196 0 0 1 4.209288,0.924583l0.091242,0.036497z"/>
   <path stroke="null" id="svg_21" fill="#fbbebe" d="m257.988712,454.027515c4.470848,-0.121656 9.489146,-0.346719 12.773851,2.66426c3.132635,2.846744 3.546264,7.542655 3.753079,11.770191l0.237229,4.908808c0.072993,1.496365 0.133821,3.041393 -0.468375,4.428268c-1.07057,2.433114 -4.008556,3.607092 -6.691065,3.467188s-5.146037,-1.313882 -7.5974,-2.372287a106.874552,106.874552 0 0 0 -20.681473,-6.514664q0.346719,-5.091292 1.155729,-10.133922c0.37105,-2.329707 0.431878,-6.228773 1.989071,-8.163099c1.648435,-2.043816 3.795659,-0.936749 6.034124,-0.559616a48.437226,48.437226 0 0 0 9.495229,0.504871z"/>
   <path stroke="null" id="svg_22" fill="#464353" d="m139.836674,404.702202c0,0.608279 -0.954997,0 -1.040156,-0.650858c-0.669106,-4.920974 -4.574255,-8.978192 -9.124179,-10.949015s-9.732458,-2.07423 -14.659515,-1.605856c-7.451413,0.705603 -15.815244,3.55843 -18.540332,10.52322c-0.644775,1.630187 -0.936749,3.394195 -1.727511,4.957471c-0.875921,1.715346 -2.305376,3.083973 -3.254291,4.750656c-1.636269,2.883241 -1.70318,6.417339 -1.11315,9.677713c1.587607,8.698384 7.536572,16.137632 14.744674,21.289751s15.63276,8.23001 24.033088,11.00376a416.786424,416.786424 0 0 0 68.127205,16.271453c3.746996,0.565699 7.530489,1.088819 11.119333,2.29321c3.211711,1.076653 6.216607,2.688591 9.355325,3.953811c7.299343,2.931903 15.15222,3.978142 22.932104,5.006133c1.326047,0.170318 2.846744,0.291974 3.826072,-0.608279c1.26522,-1.173978 0.845507,-3.217794 0.486623,-4.902726a26.368878,26.368878 0 0 1 3.108304,-18.71065c1.301716,-2.189803 2.992731,-4.434351 2.749419,-6.970873c-0.291974,-2.956234 -3.236042,-5.048712 -6.167945,-5.52317s-5.912468,0.225063 -8.856537,0.608279c-1.015825,0.133821 -2.122892,0.21898 -3.010979,-0.298057a6.015875,6.015875 0 0 1 -1.180061,-1.046239a13.33955,13.33955 0 0 0 -15.535436,-2.171555c-1.088819,0.608279 -2.737254,-0.748183 -3.868652,-1.259137l-12.792099,-5.790812c-14.696011,-6.648485 -29.465016,-13.327384 -45.012617,-17.536672a9.45265,9.45265 0 0 1 -3.467188,-1.44162c-0.772514,-0.608279 -1.326047,-1.435538 -2.037733,-2.110727c-1.55111,-1.465951 -3.7105,-2.049899 -5.571832,-3.090055s-3.947728,-3.582761 -3.521933,-5.669157z"/>
   <path stroke="null" id="svg_23" fill="#3f3d56" d="m337.046683,484.198134c-2.043816,3.789576 -6.009793,6.149697 -10.267743,7.122943a20.377334,20.377334 0 0 1 -3.248208,0.462292c-5.383266,0.334553 -10.699621,-1.155729 -15.888237,-2.627764l-7.043866,-1.982988a22.232583,22.232583 0 0 0 -3.7105,-0.827259a25.462543,25.462543 0 0 0 -5.133872,0.176401a90.992398,90.992398 0 0 1 -24.939423,-1.119233a4.397854,4.397854 0 0 1 -1.928243,-0.687355a9.580388,9.580388 0 0 1 -1.344296,-1.648435c-1.916078,-2.305376 -3.978142,-3.649672 -1.709263,-6.691065c1.307799,-1.764008 3.734831,-2.646012 4.750656,-4.67158s0.364967,-4.902726 -0.237229,-6.995204c-0.821176,-2.889323 -3.521933,-4.136295 -4.489096,-6.788389c-0.723852,-2.001237 0.492706,-4.324861 2.323624,-5.41368s4.093715,-1.173978 6.204442,-0.89417s4.178874,0.875921 6.301766,1.040156c6.240939,0.498788 12.621781,-2.719005 18.613326,-0.906335c1.319965,0.401464 2.566936,1.040156 3.905149,1.392958a12.986748,12.986748 0 0 0 7.804215,-0.675189c0.875921,-0.32847 1.733594,-0.723852 2.585184,-1.11315a20.821377,20.821377 0 0 1 5.200782,-1.879581c5.845557,-1.00366 11.26532,3.041393 15.67534,6.989121a22.165673,22.165673 0 0 1 3.984225,4.318778c1.216557,1.897829 1.861333,4.105881 2.433114,6.283518c1.611938,5.626577 2.944068,11.96484 0.158152,17.135209z"/>
   <path stroke="null" id="svg_24" opacity="0.1" d="m337.046683,484.198134c-2.043816,3.789576 -6.009793,6.149697 -10.267743,7.122943a19.884628,19.884628 0 0 0 2.159389,-10.438061c-0.364967,-5.78473 -2.907572,-11.234906 -6.149697,-16.040307a56.813223,56.813223 0 0 0 -6.776224,-8.254341c-1.934326,-1.946492 -4.312695,-3.491519 -6.393008,-5.273776a20.821377,20.821377 0 0 1 5.200782,-1.879581c5.845557,-1.00366 11.26532,3.041393 15.67534,6.989121a22.165673,22.165673 0 0 1 3.984225,4.318778c1.216557,1.897829 1.861333,4.105881 2.433114,6.283518c1.587607,5.663074 2.919737,12.001337 0.133821,17.171705z"/>
   <path stroke="null" id="svg_25" fill="#3282b8" d="m113.680693,296.544182a6.295684,6.295684 0 0 0 -1.350379,2.159389a102.105648,102.105648 0 0 0 -8.576728,35.049014a3.503685,3.503685 0 0 1 -0.395381,1.697097a7.427082,7.427082 0 0 1 -0.89417,0.967163a3.357698,3.357698 0 0 0 0.571782,4.866229c1.00366,-1.891746 3.40636,-2.506108 5.541418,-2.670343c10.225164,-0.809011 20.213098,3.947728 30.468676,3.588844c-0.723852,-2.500025 -1.764008,-4.902726 -2.354038,-7.433165c-2.609515,-11.234906 3.899066,-23.467389 -0.091242,-34.288665c-0.796845,-2.165472 -2.128975,-4.294447 -4.227536,-5.243362a11.259237,11.259237 0 0 0 -2.70684,-0.717769c-2.591267,-0.468375 -7.74947,-2.469611 -10.255577,-1.666683c-0.924583,0.298057 -1.289551,1.167895 -2.055982,1.691015c-1.161812,0.748183 -2.70684,1.021908 -3.674003,2.001237z"/>
   <rect stroke="null" transform="matrix(0.6082786140425446,0,0,0.6082786140425446,-6185.266699845368,-4636.606756218761) " id="svg_26" fill="#3f3d56" rx="7.97" height="142" width="223" y="8146.418704" x="10390.82553"/>
   <circle stroke="null" transform="matrix(0.6082786140425446,0,0,0.6082786140425446,-6185.266699845368,-4636.606756218761) " id="svg_27" fill="#fff" r="6" cy="8217.418704" cx="10501.82553"/>
   <path stroke="null" id="svg_28" fill="#3f3d56" d="m153.328293,189.024854c-2.043816,1.478117 -3.442857,3.601009 -4.866229,5.638743c-2.621681,3.765245 -5.59008,7.524406 -9.78112,9.622968c-1.587607,0.796845 -3.400277,1.399041 -4.452599,2.785916a7.506158,7.506158 0 0 0 -1.186143,3.120469a61.831521,61.831521 0 0 0 -1.253054,11.922261c0,1.995154 0.085159,4.051136 0.967163,5.863806c0.833342,1.70318 2.33579,3.1448 2.646012,5.00005c0.237229,1.447703 -0.298057,2.889323 -0.486623,4.343109s0.139904,3.175214 1.4842,3.868652a8.996441,8.996441 0 0 0 2.250631,0.529202c4.045053,0.900252 5.401514,5.644826 6.015875,9.568223c1.37471,-0.079076 1.995154,-1.654518 2.281045,-2.937986l4.215371,-18.741064c0.456209,-2.031651 1.216557,-4.385689 3.242125,-5.097375c1.356461,-0.468375 2.840661,-0.030414 4.25795,0.091242c5.565749,0.456209 10.273826,-3.844321 15.717919,-5.030464a20.073194,20.073194 0 0 1 5.298107,-0.352802c4.294447,0.212898 9.288414,1.976905 10.200832,5.985462c0.15207,0.650858 0.243311,1.429455 0.85159,1.751842s1.246971,0.048662 1.885664,0c2.725088,-0.273725 4.330944,2.791999 5.115623,5.298107l2.858909,9.124179c0.425795,1.380792 1.143564,3.004896 2.639929,3.181297c1.380792,0.170318 2.55477,-1.137481 2.761585,-2.433114s-0.243311,-2.639929 -0.541368,-3.941645c-1.344296,-5.991544 0.711686,-12.122993 1.96474,-18.126703s1.478117,-12.901589 -2.725088,-17.524507c-1.526779,-1.672766 -3.534099,-2.919737 -4.957471,-4.683745c-1.326047,-1.654518 -2.07423,-3.686168 -3.44894,-5.310272c-3.801741,-4.483013 -13.552448,-7.944119 -19.531826,-8.515901c-6.830969,-0.7421 -17.90164,0.991494 -23.424809,5.00005z"/>
   <g stroke="null" transform="matrix(0.6082786140425446,0,0,0.6082786140425446,-6185.266699845368,-4636.606756218761) " id="svg_29" opacity="0.1">
    <path stroke="null" id="svg_30" d="m10502.625384,8017.558791c-2.46,-0.3 -3.64,-3 -4.34,-5.23q-2.35,-7.51 -4.7,-15c-1.29,-4.13 -3.93,-9.17 -8.41,-8.71c-1.05,0.11 -2.18,0.52 -3.1,0s-1.15,-1.81 -1.4,-2.88c-1.5,-6.6 -9.71,-9.49 -16.77,-9.84a33.43,33.43 0 0 0 -8.71,0.57c-8.95,2 -16.69,9 -25.84,8.27c-2.36,-0.19 -4.8,-0.91 -7,-0.14c-3.37,1.16 -4.58,5 -5.33,8.38l-6.93,30.8c-0.47,2.12 -1.49,4.71 -3.75,4.83c-1,-6.44 -3.24,-14.24 -9.89,-15.72a15.72,15.72 0 0 1 -3.7,-0.87a4.34,4.34 0 0 1 -1.93,-2.15c-0.18,0.93 -0.39,1.86 -0.51,2.79c-0.3,2.38 0.23,5.22 2.44,6.36a14.79,14.79 0 0 0 3.7,0.87c6.65,1.48 8.88,9.28 9.89,15.73c2.26,-0.13 3.28,-2.72 3.75,-4.83l6.93,-30.81c0.75,-3.34 2,-7.21 5.33,-8.38c2.23,-0.77 4.67,-0.05 7,0.15c9.15,0.75 16.89,-6.32 25.84,-8.27a33,33 0 0 1 8.71,-0.58c7.06,0.35 15.27,3.25 16.77,9.84c0.25,1.07 0.4,2.35 1.4,2.88s2.05,0.08 3.1,0c4.48,-0.45 7.12,4.59 8.41,8.71q2.34,7.51 4.7,15c0.7,2.27 1.88,4.94 4.34,5.23c2.27,0.28 4.2,-1.87 4.54,-4a13.58,13.58 0 0 0 -0.6,-5.31a4.13,4.13 0 0 1 -3.94,2.31z"/>
    <path stroke="null" id="svg_31" d="m10391.085384,7998.518791c-0.51,-3.05 -3,-5.42 -4.35,-8.22a16.45,16.45 0 0 1 -1.48,-6c0,1.12 -0.1,2.24 -0.11,3.37c0,3.28 0.14,6.66 1.59,9.64c1.11,2.27 2.94,4.27 3.86,6.58a15.06,15.06 0 0 0 0.49,-5.37z"/>
    <path stroke="null" id="svg_32" d="m10509.505384,7977.238791c-1.82,8.72 -4.66,17.6 -3.78,26.34c0.57,-6.45 2.45,-12.94 3.78,-19.34a51,51 0 0 0 1.16,-14.83a61.14,61.14 0 0 1 -1.16,7.83z"/>
   </g>
   <g stroke="null" transform="matrix(0.6082786140425446,0,0,0.6082786140425446,-6185.266699845368,-4636.606756218761) " id="svg_33" opacity="0.8">
    <line stroke="#3f3d56" id="svg_34" stroke-width="3" stroke-miterlimit="10" fill="none" y2="8028.248789" x2="11228.355383" y1="8028.248789" x1="10603.295383"/>
    <path stroke="#3f3d56" id="svg_35" stroke-width="3" stroke-miterlimit="10" fill="none" d="m10658.825384,8028.238791s29.89,4.15 14.41,-27.92s42,-26 42,-26"/>
    <path stroke="#3f3d56" id="svg_36" stroke-width="3" stroke-miterlimit="10" fill="none" d="m10857.895384,8028.238791s29.89,-4.14 14.41,27.93s42,26 42,26"/>
    <path stroke="#3f3d56" id="svg_37" stroke-width="3" stroke-miterlimit="10" fill="none" d="m11144.525384,8028.238791s-29.9,-4.14 -14.41,27.93s-42,26 -42,26"/>
    <line stroke="#3f3d56" id="svg_38" stroke-width="3" stroke-miterlimit="10" fill="none" y2="8082.158789" x2="10923.185383" y1="8082.158789" x1="11088.115383"/>
    <circle stroke="null" id="svg_39" fill="#3282b8" r="18.25" cy="8028.248789" cx="10603.295383"/>
    <circle stroke="null" id="svg_40" fill="#3acc6c" r="18.25" cy="7974.058789" cx="10715.545383"/>
    <circle stroke="null" id="svg_41" fill="#3282b8" r="18.25" cy="8028.248789" cx="10715.545383"/>
    <circle stroke="null" id="svg_42" fill="#3282b8" r="18.25" cy="8028.248789" cx="10787.985383"/>
    <circle stroke="null" id="svg_43" fill="#ff6584" r="18.25" cy="8081.888789" cx="10914.605383"/>
    <circle stroke="null" id="svg_44" fill="#ff6584" r="18.25" cy="8081.888789" cx="11010.285383"/>
    <circle stroke="null" id="svg_45" fill="#3282b8" r="18.25" cy="8028.248789" cx="11005.295383"/>
    <circle stroke="null" id="svg_46" fill="#3282b8" r="18.25" cy="8028.248789" cx="11223.735383"/>
    <circle stroke="null" id="svg_47" fill="#3282b8" r="18.25" cy="8028.248789" cx="11134.375383"/>
    <rect stroke="null" id="svg_48" fill="#3282b8" height="42.2" width="61.23" y="7860.418789" x="10572.635383"/>
    <rect stroke="null" id="svg_49" fill="#3acc6c" height="42.2" width="61.23" y="7860.418789" x="10685.155383"/>
    <rect stroke="null" id="svg_50" fill="#ff6584" height="42.2" width="61.23" y="7860.418789" x="10883.735383"/>
   </g>
   <g stroke="null" transform="matrix(0.6082786140425446,0,0,0.6082786140425446,-6185.266699845368,-4636.606756218761) " id="svg_51" opacity="0.1">
    <path stroke="null" id="svg_52" fill="#3282b8" d="m10359.605384,8037.118791s-74.77,-31.44 -84.57,25.29c0,0 -5.11,8.84 2,16.14c0,0 1.53,-3.92 8.75,0.13a37.17,37.17 0 0 0 8.16,3.32a18.36,18.36 0 0 0 11.62,-0.62l0,0s24.59,-1.33 45.27,-33.5c0,0 8.87,-5.48 9.31,-7.54l-14.82,1s1.14,10.85 -5,17.36c0,0 5.44,-16.84 2.83,-17.31c-0.53,-0.1 -7.83,0.86 -7.83,0.86s1.89,18.87 -8,28.63c0,0 9.18,-19.19 5.19,-28.29l-10.94,2.11s3,19.85 -7.82,31.39c0,0 8.9,-20.4 5.46,-30.76l-10.47,3.52s2.52,19.41 -6.53,29c0,0 7.9,-24.61 4.18,-28c0,0 -9.42,3.82 -11.43,6c0,0 1.49,14 -4.26,19.05c0,0 3.53,-17 1.78,-17.7c0,0 -10.94,8.24 -14.28,15.35c0,0 4.16,-10.86 12.91,-17c0,0 -7.35,-1.24 -13,1.83c0,0 3.78,-7.21 15.65,-3.79c0,0 8.79,-6.09 10.55,-6c0,0 -11.23,-5 -19.34,-4.38c0,0 8.7,-5 22.08,3.35l10.45,-3.77s-14.5,-7.43 -21.76,-7.4c0,0 9.66,-3.74 24.47,6.66l10.7,-2.18s-12,-7.35 -20.09,-9.06c0,0 9.7,-1.54 23.18,8.55l7.31,-0.61s-8.85,-5.22 -11.53,-6.49s-2.56,-2.09 -2.56,-2.09a34.89,34.89 0 0 1 17.14,8.18s15.18,-0.3 15.24,-1.23z"/>
   </g>
   <g stroke="null" transform="matrix(0.6082786140425446,0,0,0.6082786140425446,-6185.266699845368,-4636.606756218761) " id="svg_53" opacity="0.1">
    <path stroke="null" id="svg_54" fill="#3282b8" d="m10356.845384,7980.758791s-26.48,-61.27 -64.63,-33.17c0,0 -8.06,2.34 -8,10.7c0,0 3.14,-1.46 5.13,5.07a30.1,30.1 0 0 0 3,6.61a15,15 0 0 0 7.25,6.25l0,0s15.37,13.22 46,5.89c0,0 8.4,1.79 9.83,0.83l-9.36,-7.87s-5.51,7.1 -12.89,7.44c0,0 12.83,-6.9 11.55,-8.67c-0.26,-0.36 -5.15,-3.94 -5.15,-3.94s-9.62,12.28 -21,12.47c0,0 16.39,-6.18 19.2,-13.85l-7.7,-5s-9.71,13.51 -22.71,14.21c0,0 16.91,-7.05 20.77,-15.17l-8.23,-3.87s-9.56,13 -20.37,13.49c0,0 18.72,-10.12 18.43,-14.25c0,0 -7.77,-3.1 -10.24,-2.92c0,0 -7.07,9.15 -13.38,8.89c0,0 11.79,-8.09 11.15,-9.5c0,0 -11.2,-1.34 -17.23,1c0,0 8.66,-4.08 17.35,-2.74c0,0 -3.66,-4.93 -8.75,-6.3c0,0 6.36,-2.13 11.46,6.65c0,0 8.68,1.4 9.7,2.44c0,0 -3.81,-9.39 -9,-13.62c0,0 8,2 11.2,14.57l8.36,3.71s-4.38,-12.68 -8.72,-16.79c0,0 7.87,3.28 10.75,17.9l7.6,4.79s-2.94,-11.2 -6.77,-16.83c0,0 6.64,4.62 8.89,18.29l4.7,3.8s-2.29,-8.14 -3.16,-10.42s-0.33,-2.7 -0.33,-2.7a28.65,28.65 0 0 1 5.49,14.68s9.24,8.44 9.81,7.93z"/>
   </g>
  </g>
 </g>
</svg>